<svg id="Layer_1" data-name="Layer 1" xmlns="http://www.w3.org/2000/svg" viewBox="0 0 858.25 903.09"><defs><style>.cls-1{opacity:0.4;}.cls-2{fill:#e0df44;}.cls-3{fill:#1d1d1b;}</style></defs><g class="cls-1"><ellipse class="cls-2" cx="553.3" cy="366.82" rx="272.12" ry="228.64"/><path class="cls-3" d="M572.06,656.09c-155,0-281.18-106-281.18-236.36S417,183.37,572.06,183.37s281.18,106,281.18,236.36S727.1,656.09,572.06,656.09Zm0-457.27C427,198.82,309,297.92,309,419.73S427,640.64,572.06,640.64s263.06-99.1,263.06-220.91S717.11,198.82,572.06,198.82Z" transform="translate(-18.75 -52.91)"/></g><g class="cls-1"><ellipse class="cls-2" cx="281.18" cy="366.82" rx="272.12" ry="228.64"/><path class="cls-3" d="M299.93,656.09c-155,0-281.18-106-281.18-236.36S144.89,183.37,299.93,183.37s281.18,106,281.18,236.36S455,656.09,299.93,656.09Zm0-457.27c-145,0-263.06,99.1-263.06,220.91s118,220.91,263.06,220.91S563,541.54,563,419.73,445,198.82,299.93,198.82Z" transform="translate(-18.75 -52.91)"/></g><g class="cls-1"><path class="cls-3" d="M770.08,539.82c-59.45,0-89.24-22.37-118.05-44-27.5-20.65-53.47-40.15-106.08-40.15s-78.58,19.5-106.08,40.15c-28.8,21.63-58.59,44-118,44s-89.25-22.37-118-44c-27.5-20.65-53.47-40.15-106.08-40.15V440.22c59.45,0,89.24,22.37,118.05,44,27.49,20.65,53.46,40.15,106.08,40.15s78.58-19.5,106.07-40.15c28.81-21.63,58.6-44,118.05-44s89.24,22.37,118,44c27.5,20.65,53.47,40.15,106.08,40.15Z" transform="translate(-18.75 -52.91)"/></g><g class="cls-1"><ellipse class="cls-3" cx="197.8" cy="288.56" rx="27.41" ry="47.52"/></g><g class="cls-1"><ellipse class="cls-3" cx="418.25" cy="288.56" rx="27.41" ry="47.52"/></g><g class="cls-1"><ellipse class="cls-3" cx="662.49" cy="288.56" rx="27.41" ry="47.52"/></g><g class="cls-1"><path class="cls-3" d="M572.06,656.09c-155,0-281.18-106-281.18-236.36S417,183.37,572.06,183.37s281.18,106,281.18,236.36S727.1,656.09,572.06,656.09Zm0-457.27C427,198.82,309,297.92,309,419.73S427,640.64,572.06,640.64s263.06-99.1,263.06-220.91S717.11,198.82,572.06,198.82Z" transform="translate(-18.75 -52.91)"/></g><g class="cls-1"><path class="cls-3" d="M70.74,146.7A27.43,27.43,0,0,1,66.16,151a13.85,13.85,0,0,1-5,2.24,17.92,17.92,0,0,1-6.05.23,39.32,39.32,0,0,1-7.68-1.84q-2.34-.78-4.66-1.76a44.6,44.6,0,0,1-4.5-2.2v-6.76q1.71,1.05,4,2.14a35.72,35.72,0,0,0,3.8,1.61,17.29,17.29,0,0,0,6.75,1.13A5.88,5.88,0,0,0,56.93,144c1.81-2,3.62-3.92,5.43-5.9q-15.9-27-31.8-55.3Q38,85.64,45.45,88.16q11.71,22.32,23.43,43.9l.31.09q11.25-15.23,22.49-31.08,7,1.53,14,2.85Q88.19,126,70.74,146.7Z" transform="translate(-18.75 -52.91)"/><path class="cls-3" d="M115,118.79a17.83,17.83,0,0,1,7.45-6.28,39.31,39.31,0,0,1,12.26-3.3,78.26,78.26,0,0,1,16.75,0,81.8,81.8,0,0,1,16.84,3,46.65,46.65,0,0,1,12.18,5.54,23.32,23.32,0,0,1,7.44,7.67,18.32,18.32,0,0,1,2.49,9.28,17.61,17.61,0,0,1-2.49,9.14,20.86,20.86,0,0,1-7.44,7.2,36.66,36.66,0,0,1-12.18,4.39,61.77,61.77,0,0,1-16.84.55,65.49,65.49,0,0,1-16.75-3.57,44.27,44.27,0,0,1-12.26-6.62,27.51,27.51,0,0,1-7.45-8.59,20.26,20.26,0,0,1-2.48-9.61A16,16,0,0,1,115,118.79Zm13.42,18.51a19.37,19.37,0,0,0,5.36,6,29.91,29.91,0,0,0,8,4.19,39.68,39.68,0,0,0,9.69,2.09,37.39,37.39,0,0,0,9.7-.35,24.93,24.93,0,0,0,8-2.75,14.87,14.87,0,0,0,5.35-5,13.07,13.07,0,0,0,1.94-7.15,14,14,0,0,0-1.94-7.33,18,18,0,0,0-5.35-5.6,30,30,0,0,0-8-3.8,46.05,46.05,0,0,0-9.7-1.9,43.22,43.22,0,0,0-9.69.17,24.73,24.73,0,0,0-8,2.35,13.89,13.89,0,0,0-5.36,4.63,12.24,12.24,0,0,0-1.93,7A15,15,0,0,0,128.37,137.3Z" transform="translate(-18.75 -52.91)"/><path class="cls-3" d="M259.86,154.54v-7.11l-.31,0a27.19,27.19,0,0,1-10.71,6.94,51.47,51.47,0,0,1-15.36,2.88,56.33,56.33,0,0,1-13.18-.64,23.91,23.91,0,0,1-8.54-3.13,11.74,11.74,0,0,1-4.57-5.09,16.17,16.17,0,0,1-1.32-6.62V112.32c4.39,0,8.79-.12,13.19-.24v30.34c0,2.77,1.44,4.93,4.34,6.45s6.88,2.17,11.95,1.9a44.48,44.48,0,0,0,10.47-1.67,24.74,24.74,0,0,0,7.37-3.47,14.93,14.93,0,0,0,4.42-4.82,11.68,11.68,0,0,0,1.47-5.71V109.78q6.6-.56,13.19-1.21V153.4Q266.06,154,259.86,154.54Z" transform="translate(-18.75 -52.91)"/><path class="cls-3" d="M304.54,104.82v7.11l.31-.05c5.48-6.16,14.17-10.06,26.07-11.89a61.92,61.92,0,0,1,13.18-.87,22.68,22.68,0,0,1,8.54,2,9.52,9.52,0,0,1,4.57,4.38,14.74,14.74,0,0,1,1.32,6.41v29.48q-6.58,1.13-13.19,2.2V113.22q0-4.16-4.34-5.89c-2.9-1.15-6.88-1.32-11.95-.55a52,52,0,0,0-10.47,2.59,28.07,28.07,0,0,0-7.37,4,16.37,16.37,0,0,0-4.42,5.07,12.15,12.15,0,0,0-1.47,5.79v25.32q-6.6.87-13.19,1.67V106.39Q298.34,105.64,304.54,104.82Z" transform="translate(-18.75 -52.91)"/><path class="cls-3" d="M438.59,139.24q-9,7.17-28.24,10.83a96.48,96.48,0,0,1-11.4,1.45,50.16,50.16,0,0,1-10.55-.3,20.06,20.06,0,0,1-7.84-2.65,6.92,6.92,0,0,1-3.41-5.54l13.19-2.4a3.51,3.51,0,0,0,2.25,3,15.52,15.52,0,0,0,5.12,1.3,37,37,0,0,0,6.59,0,62.31,62.31,0,0,0,6.83-.89,46.19,46.19,0,0,0,11-3.35,28.47,28.47,0,0,0,7.45-4.89,16.8,16.8,0,0,0,4.26-6.14,19.33,19.33,0,0,0,1.32-7.1v-3l-.31.06a25.75,25.75,0,0,1-10.31,8.08,60.37,60.37,0,0,1-14.67,4.73,58.38,58.38,0,0,1-15.67,1.11A31.06,31.06,0,0,1,383,130.74a16,16,0,0,1-6.74-6,15.74,15.74,0,0,1-2.25-8.31,22.58,22.58,0,0,1,1.86-8.53,26.32,26.32,0,0,1,6.2-8.75,45.72,45.72,0,0,1,11.48-7.74,68.58,68.58,0,0,1,17.54-5.49,48.72,48.72,0,0,1,14-.79q6.36.66,9.93,3.7l.15,0V82.41L447.59,80v41Q447.59,132.06,438.59,139.24Zm-16.84-17a27,27,0,0,0,7.37-5.39,20.29,20.29,0,0,0,4.11-6.38,17.78,17.78,0,0,0,1.32-6.49,12.86,12.86,0,0,0-1.24-5.58,10.89,10.89,0,0,0-3.95-4.4,16.65,16.65,0,0,0-7.06-2.34,34.47,34.47,0,0,0-10.55.61,43.73,43.73,0,0,0-10.86,3.39,27.91,27.91,0,0,0-7.37,5,17.82,17.82,0,0,0-4.19,6,16.58,16.58,0,0,0-1.32,6.39,16.33,16.33,0,0,0,1.08,5.87,10.86,10.86,0,0,0,3.73,4.82,15.64,15.64,0,0,0,7,2.69,32.2,32.2,0,0,0,10.86-.52A40.12,40.12,0,0,0,421.75,122.29Z" transform="translate(-18.75 -52.91)"/><path class="cls-3" d="M479.85,74v6.58l.31,0c6-6.18,14.64-10.3,25.91-12.24a46.86,46.86,0,0,1,13.5-.54q6,.75,8.53,4.52A33.24,33.24,0,0,1,538.73,65a52.45,52.45,0,0,1,14.51-4.11,68.18,68.18,0,0,1,10.93-.74,29.16,29.16,0,0,1,8.38,1.24A11.76,11.76,0,0,1,578,64.77a8.45,8.45,0,0,1,1.94,5.72v32.85q-6.58.76-13.19,1.6V75.55a11.17,11.17,0,0,0-.62-3.82,5.68,5.68,0,0,0-2.32-2.86,11.12,11.12,0,0,0-4.74-1.5,31,31,0,0,0-7.83.3c-6.52.93-11.64,2.74-15.36,5.39s-5.58,5.73-5.58,9.19v27.92q-6.6,1-13.19,2.13V82.91a10.07,10.07,0,0,0-.7-3.87,5.81,5.81,0,0,0-2.4-2.76A10.4,10.4,0,0,0,509.41,75a30,30,0,0,0-7.37.53,36.17,36.17,0,0,0-9.85,3,29.7,29.7,0,0,0-6.67,4.32,16.84,16.84,0,0,0-3.73,4.45,8,8,0,0,0-1.16,3.46v27.92q-6.6,1.2-13.19,2.43V76.3Q473.65,75.15,479.85,74Z" transform="translate(-18.75 -52.91)"/><path class="cls-3" d="M670.84,97.9A32.8,32.8,0,0,1,661.37,99a17.79,17.79,0,0,1-8.14-1.5,5.34,5.34,0,0,1-3-5.17A40,40,0,0,1,637.56,98,80.85,80.85,0,0,1,622,100.48a82.93,82.93,0,0,1-10.32,0,34.49,34.49,0,0,1-8.46-1.47,13.43,13.43,0,0,1-5.66-3.33,7.7,7.7,0,0,1-2.09-5.57,9.44,9.44,0,0,1,2.32-6.46,19.31,19.31,0,0,1,6.13-4.51,41.9,41.9,0,0,1,8.69-3q4.89-1.16,10-2c3.61-.64,7.06-1.13,10.31-1.5s6.13-.77,8.61-1.24a21.56,21.56,0,0,0,5.9-1.84,3.54,3.54,0,0,0,2.17-3.23A4.89,4.89,0,0,0,648,62.5a10.29,10.29,0,0,0-4.19-2.12,25.75,25.75,0,0,0-5.74-.82q-3.18-.12-6.28,0a44.92,44.92,0,0,0-14,2.63c-3.73,1.44-5.74,3.85-6,7.16q-6.6.52-13.19,1.14a12,12,0,0,1,3.1-7.31,22.75,22.75,0,0,1,7.45-5.28,47.24,47.24,0,0,1,10.63-3.35,88.65,88.65,0,0,1,12.8-1.54c3.61-.18,7.21-.19,10.78,0a41.9,41.9,0,0,1,9.69,1.5,17.55,17.55,0,0,1,7,3.66,8.15,8.15,0,0,1,2.63,6.3v23a9.75,9.75,0,0,0,.55,3.81c.36.8,1.57,1.2,3.64,1.2a22.23,22.23,0,0,0,4-.41ZM649.43,75a26.37,26.37,0,0,1-6.52,1.71c-2.69.42-5.51.79-8.46,1.13s-5.92.74-8.92,1.18a52.91,52.91,0,0,0-8.06,1.78,18,18,0,0,0-5.82,2.91,5.57,5.57,0,0,0-2.25,4.56,3.77,3.77,0,0,0,1.32,3,9,9,0,0,0,3.41,1.77,21,21,0,0,0,4.89.78,50.6,50.6,0,0,0,5.89,0,58.67,58.67,0,0,0,11.17-1.59,33.19,33.19,0,0,0,7.61-2.82A13.5,13.5,0,0,0,648,86a5.68,5.68,0,0,0,1.4-3.37Z" transform="translate(-18.75 -52.91)"/><path class="cls-3" d="M695.5,54v7.11l.31,0C701.29,56,710,53.78,721.88,55a56.19,56.19,0,0,1,13.19,2.76,29.36,29.36,0,0,1,8.53,4.57,15,15,0,0,1,4.57,5.87,17.77,17.77,0,0,1,1.32,6.84v29.48q-6.59-1.07-13.18-2V72.24c0-2.78-1.45-5.17-4.35-7.15s-6.88-3.26-11.94-3.77a41.93,41.93,0,0,0-10.48.11,21.22,21.22,0,0,0-7.37,2.41,12.12,12.12,0,0,0-4.42,4.2,10.59,10.59,0,0,0-1.47,5.51V98.87q-6.6-.36-13.19-.55V53.5Q689.3,53.68,695.5,54Z" transform="translate(-18.75 -52.91)"/><path class="cls-3" d="M781.76,66.16v7.1l.31.08c5.48-4.11,14.17-4.69,26.07-1.06a65.75,65.75,0,0,1,13.19,5.47,38.38,38.38,0,0,1,8.53,6.4,19.13,19.13,0,0,1,5.89,14v29.47q-6.59-2.51-13.18-4.78V92.48c0-2.77-1.45-5.47-4.35-8.06a31.4,31.4,0,0,0-11.94-6.21,42.84,42.84,0,0,0-10.48-2,18.45,18.45,0,0,0-7.37,1,8.64,8.64,0,0,0-5.89,8.6v25.31q-6.6-1.57-13.19-3V63.39Q775.56,64.68,781.76,66.16Z" transform="translate(-18.75 -52.91)"/></g><g class="cls-1"><path class="cls-3" d="M75.94,910.91c0-4.26,1.34-7.44,4-9.62s6.8-3.42,12.33-3.93a162.55,162.55,0,0,1,20.83,0c8.36.38,18.07.9,29.13,1.16q12.33.25,24.66-.56a102.34,102.34,0,0,0,16.37-2,34.74,34.74,0,0,0,9.57-3.34,9.61,9.61,0,0,0,4.46-4.67,17.56,17.56,0,0,0,1.06-6.37c0-8.08-9.92-12.87-29.76-17.23-7.65-1.73-13.68-2.88-18.07-3.15s-7.8,0-10.21.94a7.35,7.35,0,0,0-4.67,4.42,20.48,20.48,0,0,0-1.07,6.83,330.74,330.74,0,0,1-58.67-27.15v-3.67c0-9,7.5-11.17,22.53-8.55s38.69,10.52,71,17.76c30.61,6.71,53.29,9.84,68,14.76,14.74,4.77,22.11,10.77,22.11,19.24a16.16,16.16,0,0,1-2.55,8.7,27.32,27.32,0,0,1-8.08,7.83,66.61,66.61,0,0,1-14.46,7,154.52,154.52,0,0,1-21.68,5.89,339.22,339.22,0,0,1-34,5.32c-9.07.88-16.15,1.69-21.26,2.84s-8.36,2.31-9.78,3.7c37.85,11.29,75.69,14.86,113.53,13.37v15.21C199.53,958.11,137.73,947.06,75.94,910.91Z" transform="translate(-18.75 -52.91)"/><path class="cls-3" d="M282.15,890.28c1.42-6.28,5.25-12.06,11.48-17.49s15.66-10.37,28.28-15.26S352,848,374.42,842.68c18.42-4.35,33.66-7.61,45.71-9.24s21.69-1.72,28.91-.09,12.33,5,15.31,10,4.47,11.84,4.47,20.35a94.57,94.57,0,0,1-2.13,19.9q-2.13,9.86-11.48,19.71c-6.24,6.55-15.67,13-28.28,19.26S396.81,935,374.42,940.31c-18.14,4.28-33.31,6.51-45.49,7.08s-21.9-.72-29.13-3.55-12.33-7.18-15.31-12.83S280,918.24,280,909.74A87.92,87.92,0,0,1,282.15,890.28Zm60.59,29.65a13.41,13.41,0,0,0,5.32,8q3.82,2.56,10.2,2.42A82.49,82.49,0,0,0,374.42,928,77.81,77.81,0,0,0,391,922.34a28.22,28.22,0,0,0,10-7.86,28.68,28.68,0,0,0,5.1-11.32,73.7,73.7,0,0,0,1.49-15.88V876.82a56.38,56.38,0,0,0-1.49-14.47q-1.5-5.37-5.32-7.69c-2.55-1.56-5.95-2.19-10.2-1.93a98.89,98.89,0,0,0-16.16,2.72,90.3,90.3,0,0,0-16.58,5.3,27.09,27.09,0,0,0-10,7.39,26.44,26.44,0,0,0-5.11,11,72.23,72.23,0,0,0-1.48,15.77v10.45A57.66,57.66,0,0,0,342.74,919.93Z" transform="translate(-18.75 -52.91)"/><path class="cls-3" d="M484.12,908.67a25.48,25.48,0,0,1,4-13.13,63.75,63.75,0,0,1,12.33-14.17,185.77,185.77,0,0,1,20.84-15.8c8.35-5.57,18.07-11.49,29.12-17.66q12.33-6.9,24.66-13.53c6.81-3.53,12.26-6.52,16.37-9.06a63,63,0,0,0,9.57-6.93,15.91,15.91,0,0,0,4.46-6.21,20.43,20.43,0,0,0,1.07-6.73c0-7.93-9.93-10.1-29.77-5.42a92.1,92.1,0,0,0-18.07,6,38.15,38.15,0,0,0-10.2,6.73,16.83,16.83,0,0,0-4.68,7.21,26.84,26.84,0,0,0-1.06,7.49c-19.56,5.25-39.12,10.91-58.68,16.63v-3.67c0-9,7.51-18,22.54-27.18s38.69-18.4,71-26.13c30.62-7.26,53.29-8.69,68-6.16s22.11,8.5,22.11,16.89a17,17,0,0,1-2.56,8.86,32.44,32.44,0,0,1-8.07,8.53,101.47,101.47,0,0,1-14.46,9c-6,3.15-13.18,6.65-21.69,10.6q-17,8.06-34,17a161.14,161.14,0,0,0-21.26,12.72c-5.1,3.76-8.37,6.76-9.78,8.93,37.84-9.76,75.68-17.65,113.53-21v15.21C607.71,873,545.92,890.62,484.12,908.67Z" transform="translate(-18.75 -52.91)"/><path class="cls-3" d="M690.34,802.1c1.41-6.21,5.24-11.84,11.48-16.69s15.66-8.68,28.27-10.8,30.12-2,52.52,2.93a183.93,183.93,0,0,1,45.7,16.25,116.58,116.58,0,0,1,28.92,20.85c7.23,7.34,12.33,15,15.3,22.62A66,66,0,0,1,877,861.48a70.28,70.28,0,0,1-2.13,18c-1.42,5.35-5.24,8.57-11.48,10s-15.66.44-28.27-2-30.12-7.43-52.51-12.37c-18.15-4-33.31-6.51-45.5-9s-21.9-5.29-29.13-9-12.33-8.36-15.3-14.19-4.47-13-4.47-21.47A86.79,86.79,0,0,1,690.34,802.1Zm60.59,40.49a20.56,20.56,0,0,0,5.31,9.78,26.9,26.9,0,0,0,10.21,6.09,134.3,134.3,0,0,0,16.16,4.35,96,96,0,0,0,16.58,2.56c4.25.14,7.58-.61,10-2.35s4.11-4.5,5.1-8.33a61.72,61.72,0,0,0,1.49-15V829.25a67.84,67.84,0,0,0-1.49-15.37,25.6,25.6,0,0,0-5.31-10.8,29.42,29.42,0,0,0-10.21-7.55,77.84,77.84,0,0,0-16.15-5.22A58.42,58.42,0,0,0,766,788.67c-4.25.34-7.58,1.63-10,3.79a17.91,17.91,0,0,0-5.1,9.33,65.35,65.35,0,0,0-1.49,15.31v10.45A62.89,62.89,0,0,0,750.93,842.59Z" transform="translate(-18.75 -52.91)"/><ellipse class="cls-3" cx="362.89" cy="831.5" rx="5.01" ry="8.47"/><ellipse class="cls-3" cx="744.46" cy="761.87" rx="5.01" ry="8.47"/><ellipse class="cls-3" cx="339.22" cy="831.5" rx="5.01" ry="8.47"/><ellipse class="cls-3" cx="768.86" cy="761.87" rx="5.01" ry="8.47"/><path class="cls-3" d="M351.61,897.88a17,17,0,0,0,5.14,7.66,24.06,24.06,0,0,0,9.2,5.63,27.61,27.61,0,0,0,22-3.49,20.08,20.08,0,0,0,4-3.57c1.24-1.43,2.39-3.11,2.25-4.92-.11-1.46-2.93-1.47-2.82,0s-.85,2.58-1.78,3.67a17.85,17.85,0,0,1-3,2.73,22,22,0,0,1-8.42,3.63,25.19,25.19,0,0,1-10.34,0,19.49,19.49,0,0,1-8.29-4.6,15.55,15.55,0,0,1-5.24-7.38c-.4-1.43-3.12-.83-2.72.61Z" transform="translate(-18.75 -52.91)"/><path class="cls-3" d="M800.35,848.3a17,17,0,0,0-5.14-7.66A23.92,23.92,0,0,0,786,835a27.57,27.57,0,0,0-22,3.48,20.4,20.4,0,0,0-4,3.57c-1.24,1.43-2.39,3.11-2.25,4.92.12,1.46,2.94,1.47,2.82,0s.85-2.58,1.78-3.67a17.39,17.39,0,0,1,3-2.72,22,22,0,0,1,8.42-3.64,25.19,25.19,0,0,1,10.34,0,19.49,19.49,0,0,1,8.29,4.6,15.6,15.6,0,0,1,5.24,7.38c.4,1.44,3.12.83,2.72-.61Z" transform="translate(-18.75 -52.91)"/></g><g class="cls-1"><path class="cls-3" d="M277.55,787.11q1.76-5.15,3.51-10.06l-.25-.11a13.56,13.56,0,0,1-11.13,4.48,23.51,23.51,0,0,1-11.9-4.73,25.31,25.31,0,0,1-8.35-9.74,18.71,18.71,0,0,1-1.72-9.78,27.24,27.24,0,0,1,3-9.53,67.08,67.08,0,0,1,6.12-9.7,84.45,84.45,0,0,1,7.4-8.73,40.94,40.94,0,0,1,7.48-6.18,23.6,23.6,0,0,1,7.71-3.18,20.17,20.17,0,0,1,8.7.11,19.81,19.81,0,0,1,3.42,1.1,15.69,15.69,0,0,1,3.51,2,13.91,13.91,0,0,1,3,3.18,10.39,10.39,0,0,1,1.69,4.56l.22,0a234.88,234.88,0,0,1,13.33-24.29c2.8.2,5.75.38,8.83.54q-16.72,29-33.44,84.82A106.16,106.16,0,0,1,277.55,787.11Zm-20.1-39a20.94,20.94,0,0,0-1.68,7.19,14.23,14.23,0,0,0,1.54,7.08,15.57,15.57,0,0,0,5.85,6.15,14.11,14.11,0,0,0,8.73,2.42,15.93,15.93,0,0,0,7.95-3.05,26.42,26.42,0,0,0,6.42-6.82,47.91,47.91,0,0,0,4.56-8.58,44.85,44.85,0,0,0,2.66-9,20.51,20.51,0,0,0,0-7.69,11.68,11.68,0,0,0-2.9-5.69,11.87,11.87,0,0,0-6-3.25,13.18,13.18,0,0,0-6.77-.06,18.44,18.44,0,0,0-6,2.87,34.92,34.92,0,0,0-5.58,5.05,59.45,59.45,0,0,0-5.09,6.49A37.59,37.59,0,0,0,257.45,748.1Z" transform="translate(-18.75 -52.91)"/><path class="cls-3" d="M365.23,785.9c-7,6.08-15.24,10.63-24.54,12.12-6.55,1-11.92.34-16.08-1.78a21.1,21.1,0,0,1-9.33-9.47,31,31,0,0,1-3.15-13.9,56,56,0,0,1,2.22-15.7,44.39,44.39,0,0,1,17.2-23.45A48.48,48.48,0,0,1,344,727.56,51.8,51.8,0,0,1,358,725c6.33-.3,11.34.29,15.05,1.91a18.34,18.34,0,0,1,8.38,6.65,19.5,19.5,0,0,1,3.07,10,41,41,0,0,1-1.18,11.67c-19.46,4-39.2,7.29-57.57,6.62a29,29,0,0,0-1.39,9.32,17.14,17.14,0,0,0,2.19,8.21,13.5,13.5,0,0,0,6.3,5.59c2.82,1.28,6.42,1.66,10.77,1a30.29,30.29,0,0,0,14.6-6.32,31,31,0,0,0,9.26-12.44c4.31-.88,8.62-1.85,12.92-2.87A55.65,55.65,0,0,1,365.23,785.9Zm6.21-44.18a10.26,10.26,0,0,0-3.14-4.88,14.64,14.64,0,0,0-5.63-2.9,23.48,23.48,0,0,0-7.88-.72,31.1,31.1,0,0,0-8.7,1.7,29.5,29.5,0,0,0-7.45,3.84,28,28,0,0,0-5.92,5.68,27.41,27.41,0,0,0-4,7.21c13.81.41,28.45-1.07,43.12-3.33A14.81,14.81,0,0,0,371.44,741.72Z" transform="translate(-18.75 -52.91)"/><path class="cls-3" d="M404.06,764.17a6.83,6.83,0,0,0,4.26,2.42,20.3,20.3,0,0,0,6.45,0,54.89,54.89,0,0,0,7.59-1.57q3-.83,6.34-2a45.27,45.27,0,0,0,6.12-2.66,18.48,18.48,0,0,0,4.69-3.41,6.9,6.9,0,0,0,2.09-4.29c.2-2.15-.83-3.55-3.09-4.24a31.37,31.37,0,0,0-8.61-1.13q-5.25-.08-11.53.27a66.52,66.52,0,0,1-11.53-.27,16.29,16.29,0,0,1-8.34-3.1c-2.06-1.64-2.7-4.35-2-7.9a14.05,14.05,0,0,1,3.95-7.21,26.55,26.55,0,0,1,7.24-5.06,45.64,45.64,0,0,1,9-3.18,62.77,62.77,0,0,1,9.38-1.55,84,84,0,0,1,10.62-.32,29.63,29.63,0,0,1,8.25,1.38,11.56,11.56,0,0,1,5.47,3.63,10.37,10.37,0,0,1,2.07,6.46q-5.58.62-11.31,1.27a4.75,4.75,0,0,0-1.33-3.48,8.09,8.09,0,0,0-3.47-1.93,19.67,19.67,0,0,0-4.87-.75,39,39,0,0,0-5.57.19c-1.72.18-3.5.46-5.32.83a29.38,29.38,0,0,0-5.09,1.53,14.55,14.55,0,0,0-4,2.35,5.66,5.66,0,0,0-2,3.38,3,3,0,0,0,1.54,3.36,14.07,14.07,0,0,0,5.25,1.56,54.11,54.11,0,0,0,7.44.4c2.78,0,5.54,0,8.28,0,2.94,0,5.77.12,8.52.35a29.25,29.25,0,0,1,7.19,1.42,11.67,11.67,0,0,1,4.91,3.07,7,7,0,0,1,1.63,5.4,12.89,12.89,0,0,1-3.19,7.8,33.57,33.57,0,0,1-7.73,6.52,71.66,71.66,0,0,1-10.8,5.57c-4,1.68-8,3.21-12,4.49A82.85,82.85,0,0,1,408,777a24.76,24.76,0,0,1-10.26-.24,10.13,10.13,0,0,1-6.39-4.83c-1.39-2.4-1.81-5.72-1.29-9.73L403,759A6.93,6.93,0,0,0,404.06,764.17Z" transform="translate(-18.75 -52.91)"/><path class="cls-3" d="M468.58,708.13q.09-4.35.18-8.64c3.16-.77,6.27-1.64,9.32-2.65.05,3.09.11,6.17.16,9.24Q473.5,707.25,468.58,708.13Zm9.8,6.16q.4,22.76.8,44.86-5.74.79-11.66,1.82.45-23.16.9-45Q473.49,715.22,478.38,714.29Z" transform="translate(-18.75 -52.91)"/><path class="cls-3" d="M546.61,764.94c-3.76,3.58-10.86,5.31-21.44,6a95.1,95.1,0,0,1-9.61.15,50.47,50.47,0,0,1-9.2-1.08,20.21,20.21,0,0,1-7.08-2.88,7.64,7.64,0,0,1-3.38-5.33c3.71-.42,7.37-.78,11-1.11a4.24,4.24,0,0,0,2.23,2.91,15.44,15.44,0,0,0,4.51,1.65,32.14,32.14,0,0,0,5.58.68,51.63,51.63,0,0,0,5.6-.06,27.73,27.73,0,0,0,8.56-1.7,12.1,12.1,0,0,0,5.07-3.6,9.85,9.85,0,0,0,2-5.5,25.48,25.48,0,0,0-.64-7.33c-.24-1.08-.47-2.17-.71-3.28l-.22,0a12.06,12.06,0,0,1-6.24,7.51,28.36,28.36,0,0,1-10.81,3,40.83,40.83,0,0,1-12.56-.6,27.51,27.51,0,0,1-9.44-3.85,18,18,0,0,1-6-6.51,20.57,20.57,0,0,1-2.35-8.58,29.92,29.92,0,0,1,.87-8.71,31,31,0,0,1,3.94-9.16,45.84,45.84,0,0,1,7.38-8.88,42.52,42.52,0,0,1,11.22-7.61,15.51,15.51,0,0,1,9.21-1.73c2.92.46,5.42,2.22,7.52,5.2l.1,0c-.51-3.14-1-6.34-1.53-9.63,2.55-1.35,5.08-2.69,7.59-4q5.63,33.43,11.24,56.61C551.09,755.88,550.38,761.36,546.61,764.94Zm-17.25-19a12.66,12.66,0,0,0,4.51-5.21,19.15,19.15,0,0,0,1.64-7.15,35.46,35.46,0,0,0-.56-8.07,37.27,37.27,0,0,0-2.2-7.45A20.7,20.7,0,0,0,529,712a10.44,10.44,0,0,0-5.37-3.26,12,12,0,0,0-7.16.9,22.41,22.41,0,0,0-7.05,4.3,23.51,23.51,0,0,0-4.63,5.76,21.17,21.17,0,0,0-2.39,6.55,24.22,24.22,0,0,0,1.13,13.09,14.49,14.49,0,0,0,3.47,5.29,14.65,14.65,0,0,0,5.87,3.4,20.15,20.15,0,0,0,8.51.6A17.75,17.75,0,0,0,529.36,746Z" transform="translate(-18.75 -52.91)"/><path class="cls-3" d="M557.44,682.45q1.29,6.48,2.6,12.59l.2,0c1.51-10.2,5.67-17.11,13.35-16.91a16.92,16.92,0,0,1,9.36,3.29,36.36,36.36,0,0,1,7.67,7.57,55.67,55.67,0,0,1,6,9.83,93.35,93.35,0,0,1,4.45,11.05,421.64,421.64,0,0,0,15.35,40.32c-3.79-.31-7.47-.56-11.06-.75q-7.33-18-14.66-42.89a29.83,29.83,0,0,0-6.25-11.59c-2.79-3.09-5.87-4.85-9.23-4.86a9.36,9.36,0,0,0-6.43,2.25,13.06,13.06,0,0,0-3.61,5.84,26.1,26.1,0,0,0-1.19,8,38.7,38.7,0,0,0,1.1,9q4.67,19.55,9.33,34.45-4.89.32-9.73.75-7.41-25.68-14.83-65.17A79.22,79.22,0,0,1,557.44,682.45Z" transform="translate(-18.75 -52.91)"/><path class="cls-3" d="M638.18,741.91a27.24,27.24,0,0,0,6.52,3.75,48.88,48.88,0,0,0,8,2.46,87.12,87.12,0,0,0,8.84,1.45c2.32.26,4.74.45,7.29.56a47.35,47.35,0,0,0,6.85-.13,9,9,0,0,0,4.41-1.33c.92-.69.89-1.71-.11-3.06-1.36-1.86-4.05-3.48-7.88-4.89s-8.22-2.78-13-4.17-9.71-2.89-14.71-4.48a96.09,96.09,0,0,1-13.75-5.52,47.53,47.53,0,0,1-11-7.5,27.56,27.56,0,0,1-7.21-11c-1.28-3.44-1.62-6.23-1-8.16a4.71,4.71,0,0,1,3.61-3.56,14.53,14.53,0,0,1,7.16.75,74.73,74.73,0,0,1,9.6,3.87c4.47,2.12,8.95,4.3,13.39,6.4s8.81,4.25,13,6.39a126.37,126.37,0,0,1,11.73,6.61,42.88,42.88,0,0,1,9,7.53c-5.73-.87-11.18-1.83-16.37-2.93a22.86,22.86,0,0,0-4.89-4.46,63.27,63.27,0,0,0-6.52-4c-2.35-1.24-4.74-2.43-7.16-3.52s-4.72-2.08-6.91-2.93c-2-.76-3.9-1.43-5.74-2a18.38,18.38,0,0,0-4.66-.88,3.07,3.07,0,0,0-2.66,1c-.5.66-.4,1.83.3,3.47a13.79,13.79,0,0,0,4.16,5.16,41.19,41.19,0,0,0,7.17,4.58,84.27,84.27,0,0,0,9.37,4.07q5.24,1.93,10.84,3.71,6,1.84,12.27,3.69c4.21,1.22,8.26,2.5,12.09,3.86a76.6,76.6,0,0,1,10.47,4.53,22.06,22.06,0,0,1,7.14,5.66c2.07,2.67,2.35,4.67.9,6s-4,2.26-7.49,2.8a76.54,76.54,0,0,1-12.38.7c-4.72-.07-9.35-.28-13.92-.69a123.61,123.61,0,0,1-14.34-2.07,61.15,61.15,0,0,1-12.34-3.84,36.38,36.38,0,0,1-9.78-6.23,29.25,29.25,0,0,1-6.81-9.18c3.89.7,7.92,1.47,12.12,2.26A16.48,16.48,0,0,0,638.18,741.91Z" transform="translate(-18.75 -52.91)"/></g></svg>
