<svg id="Layer_1" data-name="Layer 1" xmlns="http://www.w3.org/2000/svg" viewBox="0 0 53.22 61.97"><defs><style>.cls-1{fill:#e1e045;}.cls-2{fill:#1e1e1c;}</style></defs><ellipse class="cls-1" cx="34.31" cy="25.17" rx="16.87" ry="15.69"/><path class="cls-2" d="M37.08,44.69c-9.61,0-17.43-7.27-17.43-16.22s7.82-16.22,17.43-16.22,17.44,7.28,17.44,16.22S46.7,44.69,37.08,44.69Zm0-31.38c-9,0-16.31,6.81-16.31,15.16s7.32,15.16,16.31,15.16,16.31-6.8,16.31-15.16S46.08,13.31,37.08,13.31Z" transform="translate(-2.77 -3.3)"/><ellipse class="cls-1" cx="17.44" cy="25.17" rx="16.87" ry="15.69"/><path class="cls-2" d="M20.21,44.69c-9.62,0-17.44-7.27-17.44-16.22s7.82-16.22,17.44-16.22,17.43,7.28,17.43,16.22S29.82,44.69,20.21,44.69Zm0-31.38c-9,0-16.31,6.81-16.31,15.16s7.31,15.16,16.31,15.16,16.31-6.8,16.31-15.16S29.2,13.31,20.21,13.31Z" transform="translate(-2.77 -3.3)"/><path class="cls-2" d="M49.36,36.71c-3.69,0-5.53-1.53-7.32-3s-3.31-2.76-6.58-2.76-4.87,1.34-6.57,2.76-3.64,3-7.32,3-5.54-1.53-7.32-3-3.32-2.76-6.58-2.76V29.88c3.68,0,5.53,1.54,7.32,3s3.31,2.75,6.58,2.75,4.87-1.33,6.57-2.75,3.64-3,7.32-3,5.54,1.54,7.32,3,3.32,2.75,6.58,2.75Z" transform="translate(-2.77 -3.3)"/><ellipse class="cls-2" cx="12.27" cy="19.8" rx="1.7" ry="3.26"/><ellipse class="cls-2" cx="25.94" cy="19.8" rx="1.7" ry="3.26"/><ellipse class="cls-2" cx="41.08" cy="19.8" rx="1.7" ry="3.26"/><path class="cls-2" d="M37.08,44.69c-9.61,0-17.43-7.27-17.43-16.22s7.82-16.22,17.43-16.22,17.44,7.28,17.44,16.22S46.7,44.69,37.08,44.69Zm0-31.38c-9,0-16.31,6.81-16.31,15.16s7.32,15.16,16.31,15.16,16.31-6.8,16.31-15.16S46.08,13.31,37.08,13.31Z" transform="translate(-2.77 -3.3)"/><path class="cls-2" d="M6,9.74a1.59,1.59,0,0,1-.29.29.71.71,0,0,1-.31.16,1.12,1.12,0,0,1-.37,0,2.79,2.79,0,0,1-.48-.12L4.26,10,4,9.8V9.34l.24.15.24.11a1,1,0,0,0,.42.07.35.35,0,0,0,.25-.12c.11-.13.22-.27.34-.4-.66-1.24-1.32-2.5-2-3.8.31.13.62.26.93.37.48,1,1,2,1.45,3h0c.47-.7.93-1.41,1.4-2.13l.86.19Q7.08,8.32,6,9.74Z" transform="translate(-2.77 -3.3)"/><path class="cls-2" d="M8.74,7.82a1.13,1.13,0,0,1,.46-.43A2.27,2.27,0,0,1,10,7.17a4,4,0,0,1,1,0,4.77,4.77,0,0,1,1,.21,2.84,2.84,0,0,1,.76.38,1.63,1.63,0,0,1,.46.53,1.4,1.4,0,0,1,.15.64,1.32,1.32,0,0,1-.15.62,1.45,1.45,0,0,1-.46.5,2.28,2.28,0,0,1-.76.3A3.86,3.86,0,0,1,10,10.13a2.68,2.68,0,0,1-.76-.45,1.79,1.79,0,0,1-.46-.59,1.6,1.6,0,0,1-.16-.66A1.23,1.23,0,0,1,8.74,7.82Zm.83,1.27a1.2,1.2,0,0,0,.33.41,1.64,1.64,0,0,0,.5.29,2.4,2.4,0,0,0,.6.15,2,2,0,0,0,.6,0,1.57,1.57,0,0,0,.5-.19,1,1,0,0,0,.33-.34,1,1,0,0,0,.12-.49,1.07,1.07,0,0,0-.12-.51A1.31,1.31,0,0,0,12.1,8a2,2,0,0,0-.5-.26,2.64,2.64,0,0,0-1.2-.12,1.47,1.47,0,0,0-.5.16.92.92,0,0,0-.33.32.9.9,0,0,0-.12.48A1.1,1.1,0,0,0,9.57,9.09Z" transform="translate(-2.77 -3.3)"/><path class="cls-2" d="M17.72,10.28V9.79h0a1.61,1.61,0,0,1-.66.48,3,3,0,0,1-.95.19,3,3,0,0,1-.82,0,1.63,1.63,0,0,1-.53-.21.84.84,0,0,1-.28-.35,1.14,1.14,0,0,1-.08-.46v-2l.81,0V9.44a.51.51,0,0,0,.27.45,1.35,1.35,0,0,0,.74.13,2.79,2.79,0,0,0,.65-.12,1.33,1.33,0,0,0,.46-.24.86.86,0,0,0,.27-.33.87.87,0,0,0,.1-.39V7.21l.81-.09V10.2Z" transform="translate(-2.77 -3.3)"/><path class="cls-2" d="M20.49,6.86v.49h0a2.56,2.56,0,0,1,1.62-.82A4.31,4.31,0,0,1,23,6.47a1.28,1.28,0,0,1,.53.14.58.58,0,0,1,.28.3,1.19,1.19,0,0,1,.08.44v2L23,9.52V7.44a.41.41,0,0,0-.27-.4A1.33,1.33,0,0,0,22,7a2.78,2.78,0,0,0-.65.18,1.63,1.63,0,0,0-.45.27,1.14,1.14,0,0,0-.28.35.9.9,0,0,0-.09.4V9.93l-.82.12V7Z" transform="translate(-2.77 -3.3)"/><path class="cls-2" d="M28.81,9.23a4,4,0,0,1-1.75.74,5.77,5.77,0,0,1-.71.1,2.84,2.84,0,0,1-.66,0,1.15,1.15,0,0,1-.48-.18A.48.48,0,0,1,25,9.49l.81-.17a.28.28,0,0,0,.14.21,1,1,0,0,0,.32.08,1.84,1.84,0,0,0,.41,0l.42-.06a3.27,3.27,0,0,0,.69-.23A1.83,1.83,0,0,0,28.25,9a1.17,1.17,0,0,0,.26-.42,1.36,1.36,0,0,0,.08-.49v-.2h0a1.77,1.77,0,0,1-.64.56,3.65,3.65,0,0,1-.91.32,3.17,3.17,0,0,1-1,.08,1.75,1.75,0,0,1-.69-.2,1.1,1.1,0,0,1-.42-.41,1.2,1.2,0,0,1-.14-.57,1.63,1.63,0,0,1,.12-.58,1.78,1.78,0,0,1,.38-.6A2.59,2.59,0,0,1,26,6a3.59,3.59,0,0,1,1.08-.38A3,3,0,0,1,28,5.51a1,1,0,0,1,.61.26h0V5.33l.77-.17V8A1.6,1.6,0,0,1,28.81,9.23Zm-1-1.17a1.74,1.74,0,0,0,.46-.37,1.34,1.34,0,0,0,.25-.43,1.29,1.29,0,0,0,.09-.45,1,1,0,0,0-.08-.38.65.65,0,0,0-.25-.3A.89.89,0,0,0,27.8,6a2,2,0,0,0-.66,0,2.29,2.29,0,0,0-.67.23,1.67,1.67,0,0,0-.46.34,1.29,1.29,0,0,0-.26.41,1.36,1.36,0,0,0-.08.44,1.09,1.09,0,0,0,.07.4.69.69,0,0,0,.23.33.9.9,0,0,0,.43.19,1.77,1.77,0,0,0,.67,0A2.15,2.15,0,0,0,27.76,8.06Z" transform="translate(-2.77 -3.3)"/><path class="cls-2" d="M31.37,4.75V5.2h0a3.1,3.1,0,0,1,2.45-.88.72.72,0,0,1,.53.31,2,2,0,0,1,.66-.5,2.87,2.87,0,0,1,.9-.28,3.26,3.26,0,0,1,.67-.05,1.54,1.54,0,0,1,.52.08.72.72,0,0,1,.34.24.61.61,0,0,1,.12.39V6.76l-.82.11v-2a.77.77,0,0,0,0-.27.33.33,0,0,0-.14-.19.7.7,0,0,0-.29-.11,1.75,1.75,0,0,0-.49,0,1.92,1.92,0,0,0-.95.37.79.79,0,0,0-.35.63V7.23l-.82.15v-2a.68.68,0,0,0,0-.26.36.36,0,0,0-.15-.19.55.55,0,0,0-.28-.09,1.55,1.55,0,0,0-.46,0,2.29,2.29,0,0,0-.61.21,1.5,1.5,0,0,0-.41.3.86.86,0,0,0-.23.3.6.6,0,0,0-.08.24V7.82L30.6,8V4.91Z" transform="translate(-2.77 -3.3)"/><path class="cls-2" d="M43.21,6.39a1.82,1.82,0,0,1-.59.08.91.91,0,0,1-.5-.11A.36.36,0,0,1,41.93,6a2.54,2.54,0,0,1-.79.39,4.68,4.68,0,0,1-1,.17h-.64a2,2,0,0,1-.53-.1.86.86,0,0,1-.35-.23.6.6,0,0,1-.13-.38.65.65,0,0,1,.15-.44,1,1,0,0,1,.38-.31,1.9,1.9,0,0,1,.54-.21l.62-.14c.22,0,.43-.08.64-.1a5.26,5.26,0,0,0,.53-.09,1.34,1.34,0,0,0,.37-.12.27.27,0,0,0,.13-.22.35.35,0,0,0-.1-.27.72.72,0,0,0-.26-.14,1,1,0,0,0-.36-.06h-.39a2.56,2.56,0,0,0-.86.18.58.58,0,0,0-.38.49l-.82.08a.89.89,0,0,1,.2-.5,1.42,1.42,0,0,1,.46-.36A2.44,2.44,0,0,1,40,3.42a4.7,4.7,0,0,1,.79-.11c.23,0,.45,0,.67,0a2.68,2.68,0,0,1,.6.1,1,1,0,0,1,.43.26.56.56,0,0,1,.17.43V5.68a.84.84,0,0,0,0,.26s.1.08.23.08l.25,0ZM41.88,4.82a1.59,1.59,0,0,1-.4.12L41,5l-.55.08a3.06,3.06,0,0,0-.5.12,1,1,0,0,0-.36.2.37.37,0,0,0-.14.31.32.32,0,0,0,.08.21.53.53,0,0,0,.21.12,1.34,1.34,0,0,0,.3.05h.37A3.84,3.84,0,0,0,41.05,6a2.17,2.17,0,0,0,.47-.19.82.82,0,0,0,.27-.24.4.4,0,0,0,.09-.23Z" transform="translate(-2.77 -3.3)"/><path class="cls-2" d="M44.74,3.38v.49h0a1.81,1.81,0,0,1,1.61-.42,2.83,2.83,0,0,1,.82.19,1.69,1.69,0,0,1,.53.31,1,1,0,0,1,.28.4,1.27,1.27,0,0,1,.09.47v2l-.82-.13V4.63A.59.59,0,0,0,47,4.14a1.41,1.41,0,0,0-.74-.26,2.3,2.3,0,0,0-.65,0,1.19,1.19,0,0,0-.46.16.82.82,0,0,0-.27.29.79.79,0,0,0-.09.38V6.46l-.82,0V3.34Z" transform="translate(-2.77 -3.3)"/><path class="cls-2" d="M50.09,4.21V4.7h0a1.64,1.64,0,0,1,1.61-.07,3.7,3.7,0,0,1,.82.38,2.38,2.38,0,0,1,.53.44,1.4,1.4,0,0,1,.36,1v2q-.41-.18-.81-.33V6a.8.8,0,0,0-.27-.56A1.94,1.94,0,0,0,51.61,5,2.73,2.73,0,0,0,51,4.9,1.2,1.2,0,0,0,50.5,5a.62.62,0,0,0-.27.23.61.61,0,0,0-.1.36V7.3l-.81-.2V4Z" transform="translate(-2.77 -3.3)"/><path class="cls-2" d="M6.32,62.18a.83.83,0,0,1,.25-.66,1.29,1.29,0,0,1,.76-.27,9.31,9.31,0,0,1,1.3,0c.51,0,1.12.06,1.8.08.51,0,1,0,1.53,0a5.82,5.82,0,0,0,1-.13,2.26,2.26,0,0,0,.59-.23.7.7,0,0,0,.28-.32,1.46,1.46,0,0,0,.06-.44c0-.55-.61-.88-1.84-1.18A7.38,7.38,0,0,0,11,58.77a1.33,1.33,0,0,0-.64.07.48.48,0,0,0-.29.3,1.68,1.68,0,0,0-.06.47,19.34,19.34,0,0,1-3.64-1.87v-.25c0-.62.46-.76,1.4-.58s2.4.72,4.4,1.21,3.3.68,4.22,1,1.37.74,1.37,1.32a1.11,1.11,0,0,1-.16.59,1.67,1.67,0,0,1-.5.54,3.75,3.75,0,0,1-.9.48,8.63,8.63,0,0,1-1.34.41,19.38,19.38,0,0,1-2.11.36,10.49,10.49,0,0,0-1.32.2,1.32,1.32,0,0,0-.61.25,19.45,19.45,0,0,0,7,.92v1A18.86,18.86,0,0,1,6.32,62.18Z" transform="translate(-2.77 -3.3)"/><path class="cls-2" d="M19.11,60.76a2.26,2.26,0,0,1,.71-1.2,5.75,5.75,0,0,1,1.75-1,23.49,23.49,0,0,1,3.26-1c1.14-.3,2.08-.52,2.83-.64a4.82,4.82,0,0,1,1.79,0,1.38,1.38,0,0,1,.95.68,3,3,0,0,1,.28,1.4,7,7,0,0,1-.13,1.37,3.06,3.06,0,0,1-.71,1.35A6.28,6.28,0,0,1,28.08,63a14.69,14.69,0,0,1-3.25,1.22,14.79,14.79,0,0,1-2.82.48,4.13,4.13,0,0,1-1.81-.24,1.83,1.83,0,0,1-.95-.88A3.49,3.49,0,0,1,19,62.1,6.55,6.55,0,0,1,19.11,60.76Zm3.75,2a.92.92,0,0,0,.33.55,1,1,0,0,0,.64.17,5.33,5.33,0,0,0,1-.17,4.45,4.45,0,0,0,1-.39,1.72,1.72,0,0,0,.62-.54,2.15,2.15,0,0,0,.31-.77,5.77,5.77,0,0,0,.09-1.09v-.72a4.27,4.27,0,0,0-.09-1,.84.84,0,0,0-.33-.53,1,1,0,0,0-.63-.13,5.34,5.34,0,0,0-1,.18,4.82,4.82,0,0,0-1,.37,1.73,1.73,0,0,0-.62.5,1.94,1.94,0,0,0-.32.76,5.59,5.59,0,0,0-.09,1.08v.72A4.49,4.49,0,0,0,22.86,62.8Z" transform="translate(-2.77 -3.3)"/><path class="cls-2" d="M31.63,62a1.8,1.8,0,0,1,.25-.9,4.42,4.42,0,0,1,.76-1,12.18,12.18,0,0,1,1.3-1.08c.51-.38,1.12-.79,1.8-1.21q.76-.48,1.53-.93c.42-.24.76-.45,1-.62a5,5,0,0,0,.59-.48,1.17,1.17,0,0,0,.28-.43,1.65,1.65,0,0,0,.06-.46c0-.54-.61-.69-1.84-.37a5.16,5.16,0,0,0-1.12.41,2.25,2.25,0,0,0-.64.46,1.23,1.23,0,0,0-.29.5,2.16,2.16,0,0,0-.06.51c-1.21.36-2.43.75-3.64,1.14v-.25c0-.62.47-1.24,1.4-1.87a15.2,15.2,0,0,1,4.4-1.79,10.11,10.11,0,0,1,4.22-.42c.91.17,1.37.58,1.37,1.16a1.24,1.24,0,0,1-.16.61,2.13,2.13,0,0,1-.5.58,6.29,6.29,0,0,1-.9.62c-.36.21-.81.45-1.34.72-.7.37-1.41.76-2.11,1.17a10.05,10.05,0,0,0-1.32.87,2.7,2.7,0,0,0-.6.61,39.82,39.82,0,0,1,7-1.44v1A56,56,0,0,0,31.63,62Z" transform="translate(-2.77 -3.3)"/><path class="cls-2" d="M44.42,54.71a2,2,0,0,1,.71-1.14,3.7,3.7,0,0,1,1.75-.74,8,8,0,0,1,3.26.2A10.77,10.77,0,0,1,53,54.14a7.55,7.55,0,0,1,1.8,1.43A4.7,4.7,0,0,1,56,58.79,5.25,5.25,0,0,1,55.86,60a.93.93,0,0,1-.71.69,4.28,4.28,0,0,1-1.76-.14c-.78-.17-1.86-.51-3.25-.85-1.13-.28-2.07-.45-2.82-.62a6.88,6.88,0,0,1-1.81-.62,2.21,2.21,0,0,1-.95-1A3.59,3.59,0,0,1,44.29,56,6.45,6.45,0,0,1,44.42,54.71Zm3.75,2.78a1.62,1.62,0,0,0,.33.67,1.56,1.56,0,0,0,.64.42,6.84,6.84,0,0,0,1,.3,4.84,4.84,0,0,0,1,.17.91.91,0,0,0,.62-.16,1,1,0,0,0,.31-.57,4.73,4.73,0,0,0,.09-1v-.71a5.3,5.3,0,0,0-.09-1.06,1.85,1.85,0,0,0-.33-.74,1.91,1.91,0,0,0-.63-.52,5,5,0,0,0-1-.36,3.46,3.46,0,0,0-1-.11,1,1,0,0,0-.62.26,1.33,1.33,0,0,0-.32.64,5.13,5.13,0,0,0-.09,1.05v.72A4.85,4.85,0,0,0,48.17,57.49Z" transform="translate(-2.77 -3.3)"/><ellipse class="cls-2" cx="22.5" cy="57.06" rx="0.31" ry="0.58"/><ellipse class="cls-2" cx="46.16" cy="52.28" rx="0.31" ry="0.58"/><ellipse class="cls-2" cx="21.03" cy="57.06" rx="0.31" ry="0.58"/><ellipse class="cls-2" cx="47.68" cy="52.28" rx="0.31" ry="0.58"/><path class="cls-2" d="M23.41,61.29a1.19,1.19,0,0,0,.32.52,1.39,1.39,0,0,0,1.94.15,2,2,0,0,0,.25-.25.61.61,0,0,0,.14-.33c0-.1-.19-.11-.18,0a.38.38,0,0,1-.11.25.81.81,0,0,1-.19.18,1.2,1.2,0,0,1-.52.25,1.38,1.38,0,0,1-.64,0,1.23,1.23,0,0,1-.51-.32,1,1,0,0,1-.33-.51c0-.09-.19-.05-.17,0Z" transform="translate(-2.77 -3.3)"/><path class="cls-2" d="M51.24,57.88a1.14,1.14,0,0,0-.32-.52,1.49,1.49,0,0,0-.57-.39,1.56,1.56,0,0,0-1.36.24,1,1,0,0,0-.25.25.47.47,0,0,0-.14.33c0,.1.18.1.17,0a.38.38,0,0,1,.11-.25,1.14,1.14,0,0,1,.19-.19,1.24,1.24,0,0,1,.52-.24,1.38,1.38,0,0,1,.64,0,1.17,1.17,0,0,1,.52.32,1.06,1.06,0,0,1,.32.51c0,.09.19,0,.17,0Z" transform="translate(-2.77 -3.3)"/><path class="cls-2" d="M18.82,53.12c.07-.24.15-.47.22-.69h0a.82.82,0,0,1-.69.31,1.41,1.41,0,0,1-.74-.33,1.58,1.58,0,0,1-.51-.67,1.34,1.34,0,0,1-.11-.67,2,2,0,0,1,.19-.65,5.13,5.13,0,0,1,.38-.67,5.91,5.91,0,0,1,.46-.6,2.54,2.54,0,0,1,.46-.42,1.3,1.3,0,0,1,.48-.22,1.1,1.1,0,0,1,.54,0l.21.08a.9.9,0,0,1,.22.14.74.74,0,0,1,.18.21.76.76,0,0,1,.11.32h0A17.33,17.33,0,0,1,21,47.59l.55,0a29.81,29.81,0,0,0-2.08,5.82A7.32,7.32,0,0,1,18.82,53.12Zm-1.25-2.68a1.78,1.78,0,0,0-.1.49.94.94,0,0,0,.1.49,1,1,0,0,0,.36.42.77.77,0,0,0,.54.17A.93.93,0,0,0,19,51.8a1.69,1.69,0,0,0,.4-.47,2.88,2.88,0,0,0,.28-.59,3,3,0,0,0,.17-.62,1.51,1.51,0,0,0,0-.52.79.79,0,0,0-.18-.39.73.73,0,0,0-.37-.23.75.75,0,0,0-.42,0,1,1,0,0,0-.37.2,1.86,1.86,0,0,0-.35.34,3.58,3.58,0,0,0-.31.45A3,3,0,0,0,17.57,50.44Z" transform="translate(-2.77 -3.3)"/><path class="cls-2" d="M24.26,53a3.09,3.09,0,0,1-1.52.83,1.46,1.46,0,0,1-1-.13,1.37,1.37,0,0,1-.58-.65,2.37,2.37,0,0,1-.2-1,4.57,4.57,0,0,1,.14-1.08,3.26,3.26,0,0,1,.44-.94,3.09,3.09,0,0,1,.63-.67,2.89,2.89,0,0,1,1.64-.59,1.84,1.84,0,0,1,.93.13,1.16,1.16,0,0,1,.52.45,1.39,1.39,0,0,1,.19.69,3.13,3.13,0,0,1-.07.8,13.6,13.6,0,0,1-3.57.45,2.47,2.47,0,0,0-.09.64,1.33,1.33,0,0,0,.14.57.85.85,0,0,0,.39.38,1.1,1.1,0,0,0,.67.07,1.8,1.8,0,0,0,.9-.43,2.15,2.15,0,0,0,.58-.86l.8-.19A3.93,3.93,0,0,1,24.26,53Zm.38-3a.69.69,0,0,0-.19-.33.81.81,0,0,0-.35-.2,1.26,1.26,0,0,0-.49,0,1.63,1.63,0,0,0-.54.12,1.61,1.61,0,0,0-.46.26,2,2,0,0,0-.37.39,2.06,2.06,0,0,0-.25.49,13.78,13.78,0,0,0,2.68-.22A1.16,1.16,0,0,0,24.64,50Z" transform="translate(-2.77 -3.3)"/><path class="cls-2" d="M26.67,51.54a.37.37,0,0,0,.26.17,1.07,1.07,0,0,0,.4,0,2.83,2.83,0,0,0,.47-.1l.39-.14.38-.18a1,1,0,0,0,.29-.24.51.51,0,0,0,.13-.29.24.24,0,0,0-.19-.29,1.6,1.6,0,0,0-.53-.08,6,6,0,0,0-.72,0,4.06,4.06,0,0,1-.71,0,1,1,0,0,1-.52-.21.55.55,0,0,1-.12-.55,1,1,0,0,1,.24-.49,1.7,1.7,0,0,1,.45-.35,3.11,3.11,0,0,1,.56-.22,3.21,3.21,0,0,1,.58-.1,3.8,3.8,0,0,1,.66,0,1.5,1.5,0,0,1,.51.09.68.68,0,0,1,.34.25.74.74,0,0,1,.13.44l-.7.09a.36.36,0,0,0-.08-.24.54.54,0,0,0-.22-.13.94.94,0,0,0-.3-.05,2.08,2.08,0,0,0-.35,0l-.33.06a1.6,1.6,0,0,0-.31.1,1.2,1.2,0,0,0-.25.16.37.37,0,0,0-.12.23.22.22,0,0,0,.09.24.86.86,0,0,0,.33.1,3.13,3.13,0,0,0,.46,0h.51a4.58,4.58,0,0,1,.53,0,1.5,1.5,0,0,1,.45.09.74.74,0,0,1,.3.21.51.51,0,0,1,.1.37.9.9,0,0,1-.2.54,2.25,2.25,0,0,1-.47.45,5.33,5.33,0,0,1-.67.38,7.92,7.92,0,0,1-.75.31,4.34,4.34,0,0,1-.78.21,1.35,1.35,0,0,1-.64,0,.59.59,0,0,1-.39-.33,1.05,1.05,0,0,1-.08-.66l.8-.22A.43.43,0,0,0,26.67,51.54Z" transform="translate(-2.77 -3.3)"/><path class="cls-2" d="M30.67,47.7v-.59l.58-.19v.64Zm.6.42c0,1,0,2.07.05,3.08l-.72.12q0-1.59.06-3.09Z" transform="translate(-2.77 -3.3)"/><path class="cls-2" d="M35.5,51.6a2.08,2.08,0,0,1-1.33.41,5.71,5.71,0,0,1-.59,0A3.17,3.17,0,0,1,33,52a1.28,1.28,0,0,1-.44-.2.52.52,0,0,1-.21-.37l.68-.07a.31.31,0,0,0,.14.2,1,1,0,0,0,.28.11l.34.05h.35a1.45,1.45,0,0,0,.53-.11A.92.92,0,0,0,35,51.3a.78.78,0,0,0,.12-.38,1.77,1.77,0,0,0,0-.5c0-.08,0-.15,0-.23h0a.84.84,0,0,1-.39.51,1.65,1.65,0,0,1-.67.21,2.46,2.46,0,0,1-.78,0,1.69,1.69,0,0,1-.59-.27,1.21,1.21,0,0,1-.37-.44,1.65,1.65,0,0,1-.14-.59,2.52,2.52,0,0,1,0-.6,2.36,2.36,0,0,1,.25-.63,2.79,2.79,0,0,1,.46-.61,2.66,2.66,0,0,1,.69-.52.87.87,0,0,1,.57-.12.7.7,0,0,1,.47.36h0l-.09-.66.47-.28c.23,1.53.46,2.83.7,3.89C35.78,51,35.74,51.35,35.5,51.6Zm-1.07-1.3a.88.88,0,0,0,.28-.36,1.53,1.53,0,0,0,.11-.49,3.52,3.52,0,0,0,0-.56,3.18,3.18,0,0,0-.13-.51,1.71,1.71,0,0,0-.24-.42.61.61,0,0,0-.33-.22.68.68,0,0,0-.45.06,1.5,1.5,0,0,0-.43.3,1.52,1.52,0,0,0-.29.39,1.7,1.7,0,0,0-.15.45,2.47,2.47,0,0,0,0,.47,1.57,1.57,0,0,0,.09.43,1,1,0,0,0,.58.6,1.29,1.29,0,0,0,.53,0A1.09,1.09,0,0,0,34.43,50.3Z" transform="translate(-2.77 -3.3)"/><path class="cls-2" d="M36.18,45.94c0,.29.1.58.16.86h0c.09-.7.35-1.18.83-1.16a1,1,0,0,1,.58.22,2.63,2.63,0,0,1,.47.52,3.73,3.73,0,0,1,.38.68,7.51,7.51,0,0,1,.27.76c.32,1.06.64,2,.95,2.76l-.68,0c-.3-.82-.61-1.81-.91-2.94a2.14,2.14,0,0,0-.39-.8.75.75,0,0,0-.57-.33.54.54,0,0,0-.4.15,1,1,0,0,0-.22.4,1.92,1.92,0,0,0-.08.55,2.68,2.68,0,0,0,.07.62c.19.9.39,1.68.58,2.37l-.6.05c-.31-1.18-.62-2.67-.92-4.47A2.72,2.72,0,0,1,36.18,45.94Z" transform="translate(-2.77 -3.3)"/><path class="cls-2" d="M41.18,50a1.66,1.66,0,0,0,.41.25,2.35,2.35,0,0,0,.49.17,3.33,3.33,0,0,0,.55.1l.45,0a2,2,0,0,0,.43,0,.48.48,0,0,0,.27-.09c.06,0,.06-.12,0-.21a1,1,0,0,0-.48-.34c-.24-.09-.51-.19-.81-.28l-.91-.31a5.59,5.59,0,0,1-.86-.38,2.88,2.88,0,0,1-.68-.51,1.85,1.85,0,0,1-.45-.76,1,1,0,0,1-.06-.56.3.3,0,0,1,.22-.24.84.84,0,0,1,.45,0,3.33,3.33,0,0,1,.59.27l.83.44.81.43a8.33,8.33,0,0,1,.73.46,3.1,3.1,0,0,1,.56.51,9.7,9.7,0,0,1-1-.2,1.42,1.42,0,0,0-.3-.3,2.42,2.42,0,0,0-.41-.27,3.75,3.75,0,0,0-.44-.24l-.43-.21-.35-.13a.93.93,0,0,0-.29-.06.21.21,0,0,0-.17.06.3.3,0,0,0,0,.24.94.94,0,0,0,.26.36,2.61,2.61,0,0,0,.44.31,6.27,6.27,0,0,0,.58.28l.68.25.76.26c.26.08.51.17.75.26s.45.2.65.31a1.55,1.55,0,0,1,.44.39c.13.18.14.32,0,.41a.79.79,0,0,1-.46.2,4.54,4.54,0,0,1-.77,0c-.29,0-.58,0-.86,0a6.12,6.12,0,0,1-.89-.15,3.67,3.67,0,0,1-.77-.26,2,2,0,0,1-.6-.43,1.74,1.74,0,0,1-.42-.63l.75.16A1.17,1.17,0,0,0,41.18,50Z" transform="translate(-2.77 -3.3)"/></svg>
