<svg id="Layer_1" data-name="Layer 1" xmlns="http://www.w3.org/2000/svg" viewBox="0 0 203.41 258.15"><defs><style>.cls-1{fill:#e0df44;}.cls-2{fill:#1d1d1b;}</style></defs><ellipse class="cls-1" cx="131.14" cy="104.86" rx="64.5" ry="65.36"/><path class="cls-2" d="M154.73,190.42c-36.75,0-66.65-30.31-66.65-67.56S118,55.29,154.73,55.29s66.64,30.31,66.64,67.57S191.47,190.42,154.73,190.42Zm0-130.71c-34.38,0-62.35,28.33-62.35,63.15s28,63.15,62.35,63.15,62.35-28.33,62.35-63.15S189.11,59.71,154.73,59.71Z" transform="translate(-23.59 -18)"/><ellipse class="cls-1" cx="66.64" cy="104.86" rx="64.5" ry="65.36"/><path class="cls-2" d="M90.23,190.42c-36.75,0-66.64-30.31-66.64-67.56S53.48,55.29,90.23,55.29s66.64,30.31,66.64,67.57S127,190.42,90.23,190.42Zm0-130.71c-34.38,0-62.35,28.33-62.35,63.15S55.85,186,90.23,186s62.35-28.33,62.35-63.15S124.61,59.71,90.23,59.71Z" transform="translate(-23.59 -18)"/><path class="cls-2" d="M201.66,157.19c-14.09,0-21.15-6.4-28-12.58-6.52-5.9-12.67-11.48-25.14-11.48s-18.63,5.58-25.14,11.48c-6.83,6.18-13.89,12.58-28,12.58s-21.15-6.4-28-12.58c-6.52-5.9-12.67-11.48-25.14-11.48v-4.41c14.09,0,21.15,6.39,28,12.57,6.51,5.91,12.67,11.48,25.14,11.48s18.62-5.57,25.14-11.48c6.83-6.18,13.89-12.57,28-12.57s21.15,6.39,28,12.57c6.51,5.91,12.67,11.48,25.14,11.48Z" transform="translate(-23.59 -18)"/><ellipse class="cls-2" cx="46.88" cy="82.49" rx="6.5" ry="13.58"/><ellipse class="cls-2" cx="99.13" cy="82.49" rx="6.5" ry="13.58"/><ellipse class="cls-2" cx="157.01" cy="82.49" rx="6.5" ry="13.58"/><path class="cls-2" d="M154.73,190.42c-36.75,0-66.65-30.31-66.65-67.56S118,55.29,154.73,55.29s66.64,30.31,66.64,67.57S191.47,190.42,154.73,190.42Zm0-130.71c-34.38,0-62.35,28.33-62.35,63.15s28,63.15,62.35,63.15,62.35-28.33,62.35-63.15S189.11,59.71,154.73,59.71Z" transform="translate(-23.59 -18)"/><path class="cls-2" d="M35.91,44.81A6.72,6.72,0,0,1,34.82,46a2.93,2.93,0,0,1-1.17.64,3.59,3.59,0,0,1-1.44.07,8.25,8.25,0,0,1-1.82-.53,11.76,11.76,0,0,1-1.1-.5,11.53,11.53,0,0,1-1.07-.63V43.15c.27.2.59.4.94.61a7.76,7.76,0,0,0,.9.46,3.53,3.53,0,0,0,1.6.33,1.37,1.37,0,0,0,1-.51l1.28-1.69q-3.77-7.71-7.53-15.81c1.17.54,2.35,1.05,3.53,1.54q2.77,6.38,5.55,12.55l.07,0q2.67-4.35,5.33-8.88c1.11.29,2.21.56,3.31.81Q40.06,38.91,35.91,44.81Z" transform="translate(-23.59 -18)"/><path class="cls-2" d="M46.39,36.83A4.51,4.51,0,0,1,48.15,35a8.3,8.3,0,0,1,2.91-.95,15.87,15.87,0,0,1,4,0A17.1,17.1,0,0,1,59,35a10.33,10.33,0,0,1,2.89,1.59,6.09,6.09,0,0,1,2.35,4.84A5.92,5.92,0,0,1,63.67,44a5.54,5.54,0,0,1-1.76,2A7.71,7.71,0,0,1,59,47.31a12,12,0,0,1-4,.15,13.2,13.2,0,0,1-4-1,10.18,10.18,0,0,1-2.91-1.9,7.57,7.57,0,0,1-1.76-2.45,6.8,6.8,0,0,1-.59-2.75A5.32,5.32,0,0,1,46.39,36.83Zm3.18,5.29a5.38,5.38,0,0,0,1.27,1.72A7,7,0,0,0,52.73,45a8,8,0,0,0,2.3.6,7.29,7.29,0,0,0,2.3-.1,5.18,5.18,0,0,0,1.89-.79,3.82,3.82,0,0,0,1.27-1.43A4.33,4.33,0,0,0,61,41.26a4.62,4.62,0,0,0-.46-2.09,4.92,4.92,0,0,0-1.27-1.6,6.73,6.73,0,0,0-1.89-1.09,9.54,9.54,0,0,0-2.3-.54,8.36,8.36,0,0,0-2.3.05,5.23,5.23,0,0,0-1.89.67A3.57,3.57,0,0,0,49.57,38a4,4,0,0,0-.46,2A4.92,4.92,0,0,0,49.57,42.12Z" transform="translate(-23.59 -18)"/><path class="cls-2" d="M80.73,47.05V45h-.07a6.47,6.47,0,0,1-2.54,2,10.32,10.32,0,0,1-3.64.82,11,11,0,0,1-3.12-.18,5.14,5.14,0,0,1-2-.89,3.28,3.28,0,0,1-1.08-1.46,5.43,5.43,0,0,1-.31-1.89V35c1,0,2.08,0,3.12-.07v8.68a2.05,2.05,0,0,0,1,1.84,4.7,4.7,0,0,0,2.83.54,9,9,0,0,0,2.48-.47,5.47,5.47,0,0,0,1.75-1,3.9,3.9,0,0,0,1-1.37,4,4,0,0,0,.35-1.64V34.26c1-.11,2.08-.22,3.12-.35V46.72Q82.2,46.9,80.73,47.05Z" transform="translate(-23.59 -18)"/><path class="cls-2" d="M91.32,32.84v2h.08a9.38,9.38,0,0,1,6.17-3.4,12.29,12.29,0,0,1,3.13-.25,4.65,4.65,0,0,1,2,.56A2.52,2.52,0,0,1,103.81,33a5.08,5.08,0,0,1,.31,1.83v8.42c-1,.22-2.08.43-3.13.63V35.24a1.72,1.72,0,0,0-1-1.68,4.66,4.66,0,0,0-2.83-.16,10.38,10.38,0,0,0-2.48.74,6.46,6.46,0,0,0-1.75,1.14,4.48,4.48,0,0,0-1,1.45,3.91,3.91,0,0,0-.35,1.65v7.24l-3.13.48V33.29Z" transform="translate(-23.59 -18)"/><path class="cls-2" d="M123.09,42.68a14.1,14.1,0,0,1-6.69,3.09,20,20,0,0,1-2.7.42,10.12,10.12,0,0,1-2.5-.09,4.24,4.24,0,0,1-1.86-.75,2.11,2.11,0,0,1-.81-1.59l3.13-.68a1,1,0,0,0,.53.84,3.25,3.25,0,0,0,1.21.38,7.48,7.48,0,0,0,1.57,0,13.22,13.22,0,0,0,1.61-.25,9.9,9.9,0,0,0,2.61-1,6.64,6.64,0,0,0,1.77-1.4,4.91,4.91,0,0,0,1-1.75,6.53,6.53,0,0,0,.31-2v-.85l-.07,0a6.37,6.37,0,0,1-2.45,2.31,12.64,12.64,0,0,1-3.47,1.35,11.37,11.37,0,0,1-3.71.32,6.32,6.32,0,0,1-2.65-.81,4.11,4.11,0,0,1-1.6-1.71,5.17,5.17,0,0,1-.53-2.38,7.66,7.66,0,0,1,1.91-4.93A10.7,10.7,0,0,1,112.43,29a14.56,14.56,0,0,1,4.15-1.57,9.55,9.55,0,0,1,3.31-.22,3.81,3.81,0,0,1,2.36,1.05h0V26.43l3-.67V37.48A6.92,6.92,0,0,1,123.09,42.68Zm-4-4.85a6.47,6.47,0,0,0,1.75-1.54,5.84,5.84,0,0,0,1-1.82,6,6,0,0,0,.32-1.86,4.24,4.24,0,0,0-.3-1.59,2.91,2.91,0,0,0-.94-1.26,3.48,3.48,0,0,0-1.67-.67,6.58,6.58,0,0,0-2.5.18,9,9,0,0,0-2.57,1,6.62,6.62,0,0,0-1.75,1.42,5.36,5.36,0,0,0-1,1.7,5.66,5.66,0,0,0-.06,3.51,3.08,3.08,0,0,0,.89,1.38,3.34,3.34,0,0,0,1.65.77,6.5,6.5,0,0,0,2.57-.15A8.4,8.4,0,0,0,119.1,37.83Z" transform="translate(-23.59 -18)"/><path class="cls-2" d="M132.87,24v1.88H133a10.21,10.21,0,0,1,6.14-3.5,9.3,9.3,0,0,1,3.2-.15,2.57,2.57,0,0,1,2,1.29,8.19,8.19,0,0,1,2.52-2.09,10.85,10.85,0,0,1,3.44-1.17,13.64,13.64,0,0,1,2.59-.21,6,6,0,0,1,2,.35,2.79,2.79,0,0,1,1.29,1,2.71,2.71,0,0,1,.46,1.63v9.4l-3.13.45v-8.4a3.78,3.78,0,0,0-.14-1.09,1.64,1.64,0,0,0-.55-.82,2.39,2.39,0,0,0-1.13-.43,6.1,6.1,0,0,0-1.85.09,7.31,7.31,0,0,0-3.64,1.54,3.39,3.39,0,0,0-1.33,2.63v8L141.7,35v-8.4a3.41,3.41,0,0,0-.17-1.11,1.58,1.58,0,0,0-.57-.79,2.1,2.1,0,0,0-1.08-.37,5.74,5.74,0,0,0-1.75.15,7.44,7.44,0,0,0-2.33.87,6.93,6.93,0,0,0-1.58,1.23,4.92,4.92,0,0,0-.89,1.27,2.64,2.64,0,0,0-.27,1v8l-3.13.7V24.69Z" transform="translate(-23.59 -18)"/><path class="cls-2" d="M178.14,30.86a6.39,6.39,0,0,1-2.25.32,3.64,3.64,0,0,1-1.93-.42,1.62,1.62,0,0,1-.71-1.48,8.87,8.87,0,0,1-3,1.62,16.86,16.86,0,0,1-3.7.7,15.32,15.32,0,0,1-2.44,0,7,7,0,0,1-2-.42,3.06,3.06,0,0,1-1.35-1,2.49,2.49,0,0,1-.49-1.59,3,3,0,0,1,.55-1.85,4.92,4.92,0,0,1,1.45-1.29,9,9,0,0,1,2.06-.86q1.15-.33,2.37-.57c.86-.18,1.68-.33,2.45-.43s1.45-.22,2-.36a4.42,4.42,0,0,0,1.4-.52,1,1,0,0,0,.51-.92,1.55,1.55,0,0,0-.39-1.11,2.24,2.24,0,0,0-1-.6,4.71,4.71,0,0,0-1.36-.24,14.79,14.79,0,0,0-1.49,0,9.18,9.18,0,0,0-3.31.75,2.33,2.33,0,0,0-1.43,2.05c-1,.1-2.09.21-3.13.33a3.82,3.82,0,0,1,.74-2.09,5.44,5.44,0,0,1,1.76-1.51,10.16,10.16,0,0,1,2.52-1,18.84,18.84,0,0,1,3-.44,24.11,24.11,0,0,1,2.55,0,8.87,8.87,0,0,1,2.3.43,3.91,3.91,0,0,1,1.65,1.05,2.57,2.57,0,0,1,.63,1.8v6.58a3.27,3.27,0,0,0,.13,1.09c.08.23.37.34.86.34a4.64,4.64,0,0,0,1-.12Zm-5.08-6.54a5.06,5.06,0,0,1-1.54.5c-.64.11-1.31.22-2,.32l-2.11.33a10.35,10.35,0,0,0-1.91.52,3.88,3.88,0,0,0-1.38.83,1.7,1.7,0,0,0-.53,1.3,1.17,1.17,0,0,0,.31.85,2,2,0,0,0,.81.5,4.26,4.26,0,0,0,1.16.23,10.8,10.8,0,0,0,1.39,0,12.08,12.08,0,0,0,2.65-.46,7.26,7.26,0,0,0,1.8-.8,3.48,3.48,0,0,0,1-1,1.84,1.84,0,0,0,.33-1Z" transform="translate(-23.59 -18)"/><path class="cls-2" d="M184,18.31v2h.08c1.3-1.47,3.36-2.1,6.17-1.75a11.68,11.68,0,0,1,3.13.79,6.48,6.48,0,0,1,2,1.31,4.2,4.2,0,0,1,1.09,1.67,6,6,0,0,1,.31,2v8.43c-1-.21-2.08-.39-3.13-.56V23.52a2.57,2.57,0,0,0-1-2,5.45,5.45,0,0,0-2.83-1.08,8.44,8.44,0,0,0-2.48,0,4.56,4.56,0,0,0-1.75.7,3.07,3.07,0,0,0-1,1.2,3.39,3.39,0,0,0-.35,1.57v7.24c-1-.07-2.09-.12-3.13-.16V18.17C182,18.2,183,18.25,184,18.31Z" transform="translate(-23.59 -18)"/><path class="cls-2" d="M204.43,21.79v2l.07,0c1.3-1.18,3.36-1.34,6.18-.3a14.16,14.16,0,0,1,3.12,1.56,9.64,9.64,0,0,1,2,1.83,6.06,6.06,0,0,1,1.08,2,6.68,6.68,0,0,1,.31,2v8.42c-1-.47-2.08-.93-3.12-1.36V29.31a3.36,3.36,0,0,0-1-2.3,7.16,7.16,0,0,0-2.83-1.78,8.83,8.83,0,0,0-2.48-.56A3.7,3.7,0,0,0,206,25a2.24,2.24,0,0,0-1,1,3.08,3.08,0,0,0-.35,1.5v7.23q-1.56-.45-3.12-.84V21C202.47,21.24,203.45,21.5,204.43,21.79Z" transform="translate(-23.59 -18)"/><path class="cls-2" d="M37.14,263.26a3.68,3.68,0,0,1,1-2.75A4.88,4.88,0,0,1,41,259.39a32.25,32.25,0,0,1,4.94,0c2,.11,4.28.26,6.9.33a57.14,57.14,0,0,0,5.85-.16,20.4,20.4,0,0,0,3.88-.56,7.33,7.33,0,0,0,2.26-.95,2.61,2.61,0,0,0,1.06-1.34,5.8,5.8,0,0,0,.25-1.82c0-2.31-2.35-3.68-7-4.92a23.85,23.85,0,0,0-4.28-.9,4.93,4.93,0,0,0-2.42.27,1.93,1.93,0,0,0-1.11,1.26,6.88,6.88,0,0,0-.25,2,73,73,0,0,1-13.91-7.76v-1c0-2.58,1.78-3.19,5.34-2.44s9.17,3,16.83,5.07c7.26,1.92,12.63,2.82,16.13,4.22s5.24,3.08,5.24,5.5a5.39,5.39,0,0,1-.61,2.49,7.21,7.21,0,0,1-1.91,2.24,15.22,15.22,0,0,1-3.43,2,32,32,0,0,1-5.14,1.68A67.18,67.18,0,0,1,61.53,266a41,41,0,0,0-5,.81,4.93,4.93,0,0,0-2.32,1.06,68.62,68.62,0,0,0,26.91,3.82v4.35A67.7,67.7,0,0,1,37.14,263.26Z" transform="translate(-23.59 -18)"/><path class="cls-2" d="M86,257.37a9.75,9.75,0,0,1,2.72-5,22,22,0,0,1,6.7-4.37,89.81,89.81,0,0,1,12.44-4.24,104.93,104.93,0,0,1,10.84-2.64,16.82,16.82,0,0,1,6.85,0A5.4,5.4,0,0,1,129.2,244a13.45,13.45,0,0,1,1.06,5.82,31.74,31.74,0,0,1-.51,5.68A12.77,12.77,0,0,1,127,261.1a24.34,24.34,0,0,1-6.7,5.5,53.49,53.49,0,0,1-12.45,5.07,50.81,50.81,0,0,1-10.78,2,14.26,14.26,0,0,1-6.9-1A7.17,7.17,0,0,1,86.57,269a15.37,15.37,0,0,1-1.06-6.08A29.71,29.71,0,0,1,86,257.37Zm14.36,8.47a3.86,3.86,0,0,0,1.26,2.3,3.54,3.54,0,0,0,2.42.69,19.48,19.48,0,0,0,7.76-2.3,7,7,0,0,0,2.36-2.25,8.91,8.91,0,0,0,1.21-3.23,24.78,24.78,0,0,0,.36-4.54v-3a19,19,0,0,0-.36-4.14,3.12,3.12,0,0,0-3.68-2.75,20.72,20.72,0,0,0-3.83.78,19,19,0,0,0-3.93,1.52,6.73,6.73,0,0,0-2.36,2.11,8.09,8.09,0,0,0-1.21,3.14,24.28,24.28,0,0,0-.36,4.51v3A19.24,19.24,0,0,0,100.38,265.84Z" transform="translate(-23.59 -18)"/><path class="cls-2" d="M133.88,262.62a8.42,8.42,0,0,1,1-3.75,17.77,17.77,0,0,1,2.92-4.05,47.71,47.71,0,0,1,4.94-4.52c2-1.59,4.29-3.28,6.91-5q2.91-2,5.84-3.87c1.61-1,2.91-1.87,3.88-2.59a16.24,16.24,0,0,0,2.27-2,4.74,4.74,0,0,0,1.06-1.78,7.2,7.2,0,0,0,.25-1.92c0-2.27-2.35-2.89-7.06-1.55a19.54,19.54,0,0,0-4.28,1.7,9.38,9.38,0,0,0-2.42,1.92,5.13,5.13,0,0,0-1.11,2.07,9,9,0,0,0-.25,2.13c-4.63,1.51-9.27,3.12-13.91,4.76V243.1c0-2.56,1.78-5.16,5.35-7.77s9.17-5.26,16.83-7.47c7.25-2.07,12.62-2.48,16.12-1.76s5.24,2.43,5.24,4.83a5.52,5.52,0,0,1-.61,2.53,8.82,8.82,0,0,1-1.91,2.44,23.47,23.47,0,0,1-3.43,2.56c-1.41.9-3.12,1.9-5.14,3q-4,2.31-8.06,4.85a37.54,37.54,0,0,0-5,3.64,10.89,10.89,0,0,0-2.31,2.55,141.14,141.14,0,0,1,26.9-6v4.34C163.18,252.44,148.53,257.46,133.88,262.62Z" transform="translate(-23.59 -18)"/><path class="cls-2" d="M182.76,232.16a8.67,8.67,0,0,1,2.72-4.77,13.73,13.73,0,0,1,6.7-3.09,28.12,28.12,0,0,1,12.45.84,39.27,39.27,0,0,1,10.83,4.64,28.35,28.35,0,0,1,6.85,6,19.85,19.85,0,0,1,3.63,6.46,22.24,22.24,0,0,1,1.06,6.93,24.38,24.38,0,0,1-.5,5.15,3.57,3.57,0,0,1-2.72,2.87c-1.48.43-3.72.13-6.71-.58s-7.14-2.12-12.44-3.53c-4.3-1.14-7.9-1.86-10.78-2.58a24.81,24.81,0,0,1-6.91-2.58,8.82,8.82,0,0,1-3.63-4,15.87,15.87,0,0,1-1.05-6.14A29.43,29.43,0,0,1,182.76,232.16Zm14.36,11.58a6.3,6.3,0,0,0,1.26,2.79,6.21,6.21,0,0,0,2.42,1.74,27.39,27.39,0,0,0,3.83,1.25,19.91,19.91,0,0,0,3.93.73,3.32,3.32,0,0,0,2.37-.67,4.29,4.29,0,0,0,1.21-2.39,21.43,21.43,0,0,0,.35-4.28v-3a23.62,23.62,0,0,0-.35-4.39,8.18,8.18,0,0,0-1.26-3.09,7.35,7.35,0,0,0-2.42-2.16,16.46,16.46,0,0,0-3.83-1.49,11.64,11.64,0,0,0-3.93-.47,3.61,3.61,0,0,0-2.37,1.08,5.48,5.48,0,0,0-1.21,2.67,22.26,22.26,0,0,0-.35,4.38v3A21.46,21.46,0,0,0,197.12,243.74Z" transform="translate(-23.59 -18)"/><ellipse class="cls-2" cx="86.01" cy="237.69" rx="1.19" ry="2.42"/><ellipse class="cls-2" cx="176.44" cy="217.78" rx="1.19" ry="2.42"/><ellipse class="cls-2" cx="80.4" cy="237.69" rx="1.19" ry="2.42"/><ellipse class="cls-2" cx="182.23" cy="217.78" rx="1.19" ry="2.42"/><path class="cls-2" d="M102.48,259.54a5,5,0,0,0,1.22,2.19,5.52,5.52,0,0,0,2.18,1.61,5.62,5.62,0,0,0,5.21-1,5.12,5.12,0,0,0,1-1,2.25,2.25,0,0,0,.54-1.41c0-.41-.7-.42-.67,0a1.71,1.71,0,0,1-.42,1,4.81,4.81,0,0,1-.71.78,4.74,4.74,0,0,1-2,1,5,5,0,0,1-2.45,0,5.42,5.42,0,0,1-3.21-3.42c-.09-.41-.74-.24-.64.17Z" transform="translate(-23.59 -18)"/><path class="cls-2" d="M208.83,245.37a5,5,0,0,0-1.22-2.19,5.52,5.52,0,0,0-2.18-1.61,5.6,5.6,0,0,0-5.21,1,5.12,5.12,0,0,0-.95,1,2.22,2.22,0,0,0-.54,1.4c0,.42.7.42.67,0a1.75,1.75,0,0,1,.43-1.05,4.68,4.68,0,0,1,2.7-1.81,4.84,4.84,0,0,1,2.45,0,4.45,4.45,0,0,1,2,1.31,4.59,4.59,0,0,1,1.24,2.11c.09.41.74.24.64-.17Z" transform="translate(-23.59 -18)"/><path class="cls-2" d="M84.93,227.87c.27-1,.55-1.93.83-2.87l-.06,0a3,3,0,0,1-2.64,1.28,5.15,5.15,0,0,1-2.82-1.35,7,7,0,0,1-2-2.79,6.43,6.43,0,0,1-.41-2.79,9.07,9.07,0,0,1,.72-2.73A19.93,19.93,0,0,1,80,213.82a23.24,23.24,0,0,1,1.75-2.5,10.45,10.45,0,0,1,1.77-1.76,5.23,5.23,0,0,1,1.83-.91,4,4,0,0,1,2.06,0,4.31,4.31,0,0,1,.81.31,3.78,3.78,0,0,1,.84.59,3.73,3.73,0,0,1,.71.91,3.31,3.31,0,0,1,.4,1.3h0a75.48,75.48,0,0,1,3.16-6.94l2.1.16q-4,8.28-7.93,24.24A21.4,21.4,0,0,1,84.93,227.87Zm-4.77-11.15a7.51,7.51,0,0,0-.4,2.06,4.73,4.73,0,0,0,.37,2,4.15,4.15,0,0,0,1.39,1.76,2.87,2.87,0,0,0,2.06.69,3.41,3.41,0,0,0,1.89-.87A7.29,7.29,0,0,0,87,220.43,14.38,14.38,0,0,0,88.07,218a14.66,14.66,0,0,0,.63-2.58,7.06,7.06,0,0,0,0-2.2,3.6,3.6,0,0,0-.68-1.62,2.71,2.71,0,0,0-1.42-.93,2.61,2.61,0,0,0-1.61,0,4.2,4.2,0,0,0-1.42.82,8.55,8.55,0,0,0-1.32,1.45,16.39,16.39,0,0,0-1.21,1.85A12.49,12.49,0,0,0,80.16,216.72Z" transform="translate(-23.59 -18)"/><path class="cls-2" d="M105.71,227.53A11.05,11.05,0,0,1,99.89,231a5.24,5.24,0,0,1-3.81-.5,5.68,5.68,0,0,1-2.21-2.71,10.45,10.45,0,0,1-.75-4,18.89,18.89,0,0,1,.53-4.48,14,14,0,0,1,1.66-3.92,12,12,0,0,1,2.41-2.79,10.89,10.89,0,0,1,3-1.76,10.39,10.39,0,0,1,3.31-.73,6.76,6.76,0,0,1,3.57.55,4.63,4.63,0,0,1,2,1.9,6.38,6.38,0,0,1,.72,2.85,14.1,14.1,0,0,1-.28,3.34c-4.61,1.15-9.29,2.08-13.64,1.89a9.57,9.57,0,0,0-.33,2.67,5.7,5.7,0,0,0,.52,2.34,3.45,3.45,0,0,0,1.49,1.6,3.84,3.84,0,0,0,2.56.29,6.64,6.64,0,0,0,3.46-1.81,8.9,8.9,0,0,0,2.19-3.55c1-.25,2-.53,3.06-.82A16.19,16.19,0,0,1,105.71,227.53Zm1.47-12.63a3,3,0,0,0-.75-1.39,3.18,3.18,0,0,0-1.33-.83,4.62,4.62,0,0,0-1.87-.21,6.21,6.21,0,0,0-2.06.49,6.6,6.6,0,0,0-1.77,1.09,7.39,7.39,0,0,0-1.4,1.63,8.42,8.42,0,0,0-1,2.06,48.4,48.4,0,0,0,10.22-1A5.31,5.31,0,0,0,107.18,214.9Z" transform="translate(-23.59 -18)"/><path class="cls-2" d="M114.91,221.32a1.6,1.6,0,0,0,1,.69,4.09,4.09,0,0,0,1.53,0,13.15,13.15,0,0,0,1.8-.45c.47-.16,1-.35,1.5-.58a9.91,9.91,0,0,0,1.45-.76,4.59,4.59,0,0,0,1.11-1,2.16,2.16,0,0,0,.5-1.22,1.07,1.07,0,0,0-.73-1.21,6.16,6.16,0,0,0-2-.32c-.83,0-1.74,0-2.73.07a12.15,12.15,0,0,1-2.73-.08,3.49,3.49,0,0,1-2-.88,2.43,2.43,0,0,1-.46-2.26,4.32,4.32,0,0,1,.93-2.06,6.67,6.67,0,0,1,1.72-1.45,10.12,10.12,0,0,1,2.13-.91,12.54,12.54,0,0,1,2.23-.44,15.82,15.82,0,0,1,2.52-.09,6.13,6.13,0,0,1,2,.39,2.75,2.75,0,0,1,1.3,1,3.46,3.46,0,0,1,.49,1.85l-2.68.36a1.51,1.51,0,0,0-.32-1,1.94,1.94,0,0,0-.82-.56,4.06,4.06,0,0,0-1.15-.21,8.42,8.42,0,0,0-1.32.05,12.78,12.78,0,0,0-1.27.24,6.32,6.32,0,0,0-1.2.44,3.52,3.52,0,0,0-1,.67,1.72,1.72,0,0,0-.48,1,.92.92,0,0,0,.37,1,2.92,2.92,0,0,0,1.24.44,11.73,11.73,0,0,0,1.77.12h2a18.84,18.84,0,0,1,2,.1,5.82,5.82,0,0,1,1.7.4,2.84,2.84,0,0,1,1.17.88,2.23,2.23,0,0,1,.38,1.54,4.14,4.14,0,0,1-.75,2.24,8.91,8.91,0,0,1-1.83,1.86,16.37,16.37,0,0,1-2.56,1.59c-1,.48-1.91.92-2.86,1.29a16.75,16.75,0,0,1-3,.88,4.89,4.89,0,0,1-2.43-.07,2.52,2.52,0,0,1-1.52-1.38,5.17,5.17,0,0,1-.3-2.78l3.06-.91A2.33,2.33,0,0,0,114.91,221.32Z" transform="translate(-23.59 -18)"/><path class="cls-2" d="M130.2,205.3c0-.83,0-1.65,0-2.47.75-.22,1.49-.47,2.21-.76,0,.89,0,1.76,0,2.64C131.74,204.93,131,205.13,130.2,205.3Zm2.32,1.76q.1,6.51.19,12.82c-.9.15-1.82.33-2.76.52q.11-6.61.21-12.87C131,207.39,131.75,207.24,132.52,207.06Z" transform="translate(-23.59 -18)"/><path class="cls-2" d="M148.7,221.54c-.9,1-2.58,1.52-5.09,1.72a18.92,18.92,0,0,1-2.27,0,9.88,9.88,0,0,1-2.19-.31,4.43,4.43,0,0,1-1.67-.82,2.23,2.23,0,0,1-.8-1.52c.88-.12,1.74-.23,2.6-.32a1.18,1.18,0,0,0,.53.83,3.08,3.08,0,0,0,1.07.47,6.76,6.76,0,0,0,1.32.2,11.62,11.62,0,0,0,1.33,0,5.59,5.59,0,0,0,2-.49,2.92,2.92,0,0,0,1.21-1,3.27,3.27,0,0,0,.48-1.58,8.67,8.67,0,0,0-.15-2.09c-.06-.31-.12-.62-.17-.94h0a3.43,3.43,0,0,1-1.48,2.15,6,6,0,0,1-2.57.87,8,8,0,0,1-3-.18,5.67,5.67,0,0,1-2.24-1.1,4.82,4.82,0,0,1-1.41-1.86,6.92,6.92,0,0,1-.56-2.45,10.3,10.3,0,0,1,1.14-5.11,12.79,12.79,0,0,1,1.75-2.53,10.06,10.06,0,0,1,2.66-2.18,3.19,3.19,0,0,1,2.18-.5,2.77,2.77,0,0,1,1.78,1.49h0c-.12-.9-.24-1.81-.36-2.75l1.79-1.15q1.33,9.56,2.67,16.19C149.76,219,149.59,220.51,148.7,221.54Zm-4.09-5.42a3.57,3.57,0,0,0,1.07-1.49,6.38,6.38,0,0,0,.38-2,12.31,12.31,0,0,0-.65-4.44,6.38,6.38,0,0,0-.89-1.75,2.44,2.44,0,0,0-1.28-.93,2.32,2.32,0,0,0-1.69.26,5.08,5.08,0,0,0-1.67,1.22,6.6,6.6,0,0,0-1.1,1.65,6.75,6.75,0,0,0-.57,1.87,8.42,8.42,0,0,0,.27,3.74,4.46,4.46,0,0,0,.82,1.52,3.46,3.46,0,0,0,1.39,1,4,4,0,0,0,2,.17A3.75,3.75,0,0,0,144.61,216.12Z" transform="translate(-23.59 -18)"/><path class="cls-2" d="M151.26,198c.21,1.23.41,2.43.62,3.6l0,0c.36-2.91,1.35-4.88,3.17-4.83a3.67,3.67,0,0,1,2.22.94,9.91,9.91,0,0,1,1.82,2.17,16.79,16.79,0,0,1,1.42,2.81,29.27,29.27,0,0,1,1.06,3.16q1.81,6.65,3.63,11.52c-.9-.09-1.77-.16-2.62-.21q-1.74-5.16-3.47-12.26a9.29,9.29,0,0,0-1.48-3.32,2.89,2.89,0,0,0-2.19-1.39,2,2,0,0,0-1.53.65,3.89,3.89,0,0,0-.85,1.66,8.66,8.66,0,0,0-.28,2.29,13,13,0,0,0,.26,2.58q1.09,5.59,2.21,9.85c-.78.06-1.54.13-2.31.22q-1.75-7.35-3.51-18.63A16.54,16.54,0,0,1,151.26,198Z" transform="translate(-23.59 -18)"/><path class="cls-2" d="M170.4,215a6.51,6.51,0,0,0,1.54,1.07,9.94,9.94,0,0,0,1.9.7,16.09,16.09,0,0,0,2.09.41c.55.08,1.13.13,1.73.16a9.46,9.46,0,0,0,1.62,0,1.9,1.9,0,0,0,1.05-.38c.22-.2.21-.49,0-.88a4.07,4.07,0,0,0-1.87-1.4c-.91-.4-1.94-.79-3.08-1.19s-2.3-.82-3.48-1.28a19.72,19.72,0,0,1-3.26-1.58,11.11,11.11,0,0,1-2.62-2.14,8.19,8.19,0,0,1-1.71-3.14A4.76,4.76,0,0,1,164,203a1.26,1.26,0,0,1,.86-1,2.87,2.87,0,0,1,1.7.22,15.49,15.49,0,0,1,2.27,1.1l3.17,1.83c1.06.61,2.09,1.22,3.1,1.83a28.7,28.7,0,0,1,2.78,1.89,10.89,10.89,0,0,1,2.14,2.15c-1.36-.25-2.65-.52-3.88-.84a5.74,5.74,0,0,0-1.16-1.27,14.38,14.38,0,0,0-1.55-1.13c-.55-.36-1.12-.69-1.69-1s-1.12-.59-1.64-.83-.93-.41-1.36-.57a3.42,3.42,0,0,0-1.11-.25.66.66,0,0,0-.63.27,1.25,1.25,0,0,0,.07,1,4,4,0,0,0,1,1.48,9.77,9.77,0,0,0,1.7,1.31,17,17,0,0,0,2.22,1.16c.83.37,1.68.72,2.57,1.06s1.91.71,2.91,1.06,1.95.71,2.86,1.1a16.49,16.49,0,0,1,2.48,1.3,5.5,5.5,0,0,1,1.7,1.61c.49.76.55,1.34.21,1.72a3.05,3.05,0,0,1-1.78.8,15.14,15.14,0,0,1-2.93.2c-1.12,0-2.22-.08-3.3-.2a23.85,23.85,0,0,1-3.4-.59,12.81,12.81,0,0,1-2.92-1.1,8.44,8.44,0,0,1-2.32-1.78,8.28,8.28,0,0,1-1.61-2.62l2.87.65A4.69,4.69,0,0,0,170.4,215Z" transform="translate(-23.59 -18)"/></svg>
