<svg id="Layer_1" data-name="Layer 1" xmlns="http://www.w3.org/2000/svg" viewBox="0 0 121.07 137.31"><defs><style>.cls-1{fill:#e1e045;}.cls-2{fill:#1e1e1c;}</style></defs><ellipse class="cls-1" cx="78.05" cy="55.77" rx="38.39" ry="34.76"/><path class="cls-2" d="M85,103.4c-21.87,0-39.66-16.12-39.66-35.94S63.11,31.52,85,31.52s39.67,16.12,39.67,35.94S106.85,103.4,85,103.4Zm0-69.53c-20.46,0-37.11,15.07-37.11,33.59S64.52,101.05,85,101.05,122.09,86,122.09,67.46,105.44,33.87,85,33.87Z" transform="translate(-6.93 -11.69)"/><ellipse class="cls-1" cx="39.67" cy="55.77" rx="38.39" ry="34.76"/><path class="cls-2" d="M46.59,103.4c-21.87,0-39.66-16.12-39.66-35.94S24.72,31.52,46.59,31.52,86.26,47.64,86.26,67.46,68.47,103.4,46.59,103.4Zm0-69.53c-20.46,0-37.11,15.07-37.11,33.59s16.65,33.59,37.11,33.59S83.7,86,83.7,67.46,67.06,33.87,46.59,33.87Z" transform="translate(-6.93 -11.69)"/><path class="cls-2" d="M112.92,85.72c-8.39,0-12.59-3.4-16.66-6.69-3.87-3.14-7.54-6.1-15-6.1s-11.09,3-15,6.1c-4.07,3.29-8.27,6.69-16.66,6.69S37.09,82.32,33,79c-3.88-3.14-7.54-6.1-15-6.1V70.58c8.38,0,12.58,3.4,16.65,6.69,3.88,3.14,7.54,6.1,15,6.1s11.09-3,15-6.1c4.06-3.29,8.26-6.69,16.65-6.69S93.89,74,98,77.27c3.88,3.14,7.54,6.1,15,6.1Z" transform="translate(-6.93 -11.69)"/><ellipse class="cls-2" cx="27.9" cy="43.87" rx="3.87" ry="7.22"/><ellipse class="cls-2" cx="59" cy="43.87" rx="3.87" ry="7.22"/><ellipse class="cls-2" cx="93.46" cy="43.87" rx="3.87" ry="7.22"/><path class="cls-2" d="M85,103.4c-21.87,0-39.66-16.12-39.66-35.94S63.11,31.52,85,31.52s39.67,16.12,39.67,35.94S106.85,103.4,85,103.4Zm0-69.53c-20.46,0-37.11,15.07-37.11,33.59S64.52,101.05,85,101.05,122.09,86,122.09,67.46,105.44,33.87,85,33.87Z" transform="translate(-6.93 -11.69)"/><path class="cls-2" d="M14.26,26a4.39,4.39,0,0,1-.64.65,2,2,0,0,1-.7.34,2.43,2.43,0,0,1-.86,0A5.08,5.08,0,0,1,11,26.69a6,6,0,0,1-.66-.26,4.77,4.77,0,0,1-.63-.34v-1a4.61,4.61,0,0,0,.56.33,4.32,4.32,0,0,0,.53.24,2.33,2.33,0,0,0,1,.18.86.86,0,0,0,.58-.27l.77-.9q-2.25-4.11-4.49-8.41c.7.29,1.4.56,2.1.82q1.67,3.39,3.31,6.67h0q1.59-2.31,3.18-4.72c.65.16,1.31.3,2,.43C17.55,21.69,15.9,23.86,14.26,26Z" transform="translate(-6.93 -11.69)"/><path class="cls-2" d="M20.5,21.7a2.5,2.5,0,0,1,1.05-.95,5,5,0,0,1,1.73-.5,10.25,10.25,0,0,1,2.36,0A11.42,11.42,0,0,1,28,20.7a6.42,6.42,0,0,1,1.72.85,3.58,3.58,0,0,1,1.05,1.16,3,3,0,0,1,.35,1.41,2.84,2.84,0,0,1-.35,1.39,3.14,3.14,0,0,1-1.05,1.1,5.07,5.07,0,0,1-1.72.67,8.31,8.31,0,0,1-2.38.08,8.81,8.81,0,0,1-2.36-.54,6,6,0,0,1-1.73-1,4,4,0,0,1-1.05-1.3A3.37,3.37,0,0,1,20.15,23,2.63,2.63,0,0,1,20.5,21.7Zm1.89,2.82a3,3,0,0,0,.76.91,4.11,4.11,0,0,0,1.13.64,5.09,5.09,0,0,0,1.36.31A4.78,4.78,0,0,0,27,26.33a3.24,3.24,0,0,0,1.13-.42,2.1,2.1,0,0,0,.75-.76,2.06,2.06,0,0,0,.28-1.09A2.18,2.18,0,0,0,28.89,23a2.63,2.63,0,0,0-.75-.85A4.15,4.15,0,0,0,27,21.52a6.06,6.06,0,0,0-1.37-.29,5.59,5.59,0,0,0-1.36,0,3.57,3.57,0,0,0-1.13.36,2.08,2.08,0,0,0-.76.71,2,2,0,0,0-.27,1.06A2.46,2.46,0,0,0,22.39,24.52Z" transform="translate(-6.93 -11.69)"/><path class="cls-2" d="M40.94,27.14V26.06h0a3.93,3.93,0,0,1-1.51,1.06,7.19,7.19,0,0,1-2.17.44,7.54,7.54,0,0,1-1.86-.1,3,3,0,0,1-1.2-.48,1.7,1.7,0,0,1-.65-.77,2.71,2.71,0,0,1-.19-1V20.72c.62,0,1.24,0,1.87,0V25.3a1.07,1.07,0,0,0,.61,1,3.08,3.08,0,0,0,1.68.29A6,6,0,0,0,39,26.31a3.18,3.18,0,0,0,1-.53,2.13,2.13,0,0,0,.62-.73,1.86,1.86,0,0,0,.21-.87V20.33q.93-.07,1.86-.18V27Z" transform="translate(-6.93 -11.69)"/><path class="cls-2" d="M47.24,19.58v1.08h0A5.77,5.77,0,0,1,51,18.85a8.26,8.26,0,0,1,1.87-.14A3.19,3.19,0,0,1,54,19a1.38,1.38,0,0,1,.64.67,2.27,2.27,0,0,1,.19,1v4.49L53,25.47V20.86a.92.92,0,0,0-.61-.9,3.14,3.14,0,0,0-1.69-.08,6.75,6.75,0,0,0-1.48.39,3.65,3.65,0,0,0-1,.61,2.38,2.38,0,0,0-.63.77,1.93,1.93,0,0,0-.21.88v3.85l-1.86.25V19.82Z" transform="translate(-6.93 -11.69)"/><path class="cls-2" d="M66.15,24.81a8.77,8.77,0,0,1-4,1.65,12,12,0,0,1-1.61.22,6.55,6.55,0,0,1-1.49-.05,2.66,2.66,0,0,1-1.1-.4,1.08,1.08,0,0,1-.48-.84L59.35,25a.55.55,0,0,0,.31.46,2.1,2.1,0,0,0,.73.19,4.76,4.76,0,0,0,.93,0,9.64,9.64,0,0,0,1-.14A5.75,5.75,0,0,0,63.83,25a3.7,3.7,0,0,0,1-.74,2.63,2.63,0,0,0,.61-.93,3.31,3.31,0,0,0,.18-1.08v-.45h0a3.74,3.74,0,0,1-1.46,1.22,7.48,7.48,0,0,1-2.07.72,7.34,7.34,0,0,1-2.21.17,4.1,4.1,0,0,1-1.57-.43,2.32,2.32,0,0,1-1-.91,2.44,2.44,0,0,1-.32-1.26,3.76,3.76,0,0,1,.26-1.3,4.1,4.1,0,0,1,.88-1.33,6.4,6.4,0,0,1,1.62-1.18,9.39,9.39,0,0,1,2.47-.83,6.13,6.13,0,0,1,2-.12,2.42,2.42,0,0,1,1.4.56h0v-1l1.75-.36v6.24A3.47,3.47,0,0,1,66.15,24.81Zm-2.37-2.57a4.06,4.06,0,0,0,1-.82,3.37,3.37,0,0,0,.58-1,3,3,0,0,0,.18-1,2.05,2.05,0,0,0-.17-.85,1.63,1.63,0,0,0-.56-.67,2.15,2.15,0,0,0-1-.35,4.38,4.38,0,0,0-1.49.09,5.38,5.38,0,0,0-1.53.52,3.87,3.87,0,0,0-1,.75,2.87,2.87,0,0,0-.6.91,2.77,2.77,0,0,0-.18,1,2.64,2.64,0,0,0,.15.89,1.62,1.62,0,0,0,.53.74,2.2,2.2,0,0,0,1,.41,4.35,4.35,0,0,0,1.53-.08A5.54,5.54,0,0,0,63.78,22.24Z" transform="translate(-6.93 -11.69)"/><path class="cls-2" d="M72,14.89v1h0A6.26,6.26,0,0,1,75.67,14,6,6,0,0,1,77.58,14a1.52,1.52,0,0,1,1.2.68,4.89,4.89,0,0,1,1.5-1.11,7,7,0,0,1,2-.62,8.63,8.63,0,0,1,1.54-.11,3.69,3.69,0,0,1,1.18.19,1.59,1.59,0,0,1,.77.51,1.37,1.37,0,0,1,.27.87v5q-.93.11-1.86.24V15.13a1.81,1.81,0,0,0-.09-.58.82.82,0,0,0-.32-.44,1.51,1.51,0,0,0-.67-.22,3.92,3.92,0,0,0-1.11,0,4.66,4.66,0,0,0-2.16.82,1.73,1.73,0,0,0-.79,1.4v4.24l-1.86.33V16.25a1.55,1.55,0,0,0-.1-.59.92.92,0,0,0-.34-.42,1.43,1.43,0,0,0-.65-.2,4.1,4.1,0,0,0-1,.08,4.86,4.86,0,0,0-1.38.46,4.37,4.37,0,0,0-1,.66,2.52,2.52,0,0,0-.52.68,1.28,1.28,0,0,0-.17.52v4.25l-1.86.37V15.24Z" transform="translate(-6.93 -11.69)"/><path class="cls-2" d="M98.92,18.53a4.28,4.28,0,0,1-1.34.17,2.38,2.38,0,0,1-1.15-.23.83.83,0,0,1-.42-.79,5.43,5.43,0,0,1-1.79.87,11.35,11.35,0,0,1-2.2.37,10.07,10.07,0,0,1-1.45,0,4.49,4.49,0,0,1-1.2-.23,1.76,1.76,0,0,1-.79-.5,1.23,1.23,0,0,1-.3-.85,1.49,1.49,0,0,1,.33-1,2.84,2.84,0,0,1,.86-.69,6.31,6.31,0,0,1,1.23-.46q.69-.17,1.41-.3c.51-.1,1-.17,1.46-.23s.86-.12,1.21-.19a2.67,2.67,0,0,0,.83-.28.53.53,0,0,0,.31-.49.77.77,0,0,0-.23-.58,1.36,1.36,0,0,0-.59-.33,3.29,3.29,0,0,0-.81-.12H93.4a6.17,6.17,0,0,0-2,.4,1.26,1.26,0,0,0-.85,1.09l-1.86.18a1.83,1.83,0,0,1,.44-1.11,3.13,3.13,0,0,1,1-.81,6,6,0,0,1,1.5-.51,11.05,11.05,0,0,1,1.8-.23c.51,0,1,0,1.52,0a6.12,6.12,0,0,1,1.37.23,2.39,2.39,0,0,1,1,.56,1.27,1.27,0,0,1,.38,1V17a1.71,1.71,0,0,0,.07.58c0,.12.23.18.52.18a3.25,3.25,0,0,0,.57-.06Zm-3-3.48a3.52,3.52,0,0,1-.92.26c-.38.07-.78.12-1.2.17l-1.25.18a7.37,7.37,0,0,0-1.14.27,2.54,2.54,0,0,0-.82.45.87.87,0,0,0-.32.69.58.58,0,0,0,.19.45,1.12,1.12,0,0,0,.48.27,3.07,3.07,0,0,0,.69.12,7.75,7.75,0,0,0,.83,0A7.88,7.88,0,0,0,94,17.66a4.25,4.25,0,0,0,1.08-.43,1.89,1.89,0,0,0,.61-.52.89.89,0,0,0,.2-.51Z" transform="translate(-6.93 -11.69)"/><path class="cls-2" d="M102.4,11.85v1.08h0a4.29,4.29,0,0,1,3.68-.93,7.12,7.12,0,0,1,1.86.42,4,4,0,0,1,1.2.69,2.34,2.34,0,0,1,.65.89,3,3,0,0,1,.18,1v4.49l-1.86-.3V14.63a1.31,1.31,0,0,0-.61-1.09,3.38,3.38,0,0,0-1.69-.57,5.11,5.11,0,0,0-1.47,0,2.82,2.82,0,0,0-1,.37,1.75,1.75,0,0,0-.63.64,1.8,1.8,0,0,0-.2.84v3.84l-1.86-.08V11.78Z" transform="translate(-6.93 -11.69)"/><path class="cls-2" d="M114.57,13.7v1.08h0c.77-.62,2-.71,3.68-.16a9.61,9.61,0,0,1,1.86.83,5.84,5.84,0,0,1,1.2,1,3.2,3.2,0,0,1,.65,1,3.31,3.31,0,0,1,.18,1.08v4.49c-.62-.26-1.24-.5-1.86-.73V17.7a1.69,1.69,0,0,0-.61-1.22,4.46,4.46,0,0,0-1.69-1,5.49,5.49,0,0,0-1.47-.29,2.31,2.31,0,0,0-1,.15,1.35,1.35,0,0,0-.63.51,1.47,1.47,0,0,0-.21.8v3.84c-.62-.16-1.24-.31-1.86-.44V13.28C113.4,13.41,114,13.55,114.57,13.7Z" transform="translate(-6.93 -11.69)"/><path class="cls-2" d="M15,142.14a1.8,1.8,0,0,1,.57-1.46,3.07,3.07,0,0,1,1.73-.6,22,22,0,0,1,2.94,0c1.18.06,2.55.14,4.11.18a33.7,33.7,0,0,0,3.48-.09,14.08,14.08,0,0,0,2.31-.29,4.66,4.66,0,0,0,1.35-.51,1.46,1.46,0,0,0,.63-.71,2.82,2.82,0,0,0,.15-1c0-1.23-1.4-2-4.2-2.62a16.8,16.8,0,0,0-2.55-.48,3.19,3.19,0,0,0-1.44.15,1.07,1.07,0,0,0-.66.67,3.28,3.28,0,0,0-.15,1A44.56,44.56,0,0,1,15,132.32v-.56c0-1.38,1.05-1.7,3.17-1.3s5.46,1.6,10,2.7c4.32,1,7.52,1.5,9.6,2.24s3.12,1.64,3.12,2.93a2.57,2.57,0,0,1-.36,1.32,3.85,3.85,0,0,1-1.14,1.19,9.14,9.14,0,0,1-2,1.07,21.31,21.31,0,0,1-3.06.89,44.53,44.53,0,0,1-4.8.81,27.55,27.55,0,0,0-3,.43,3,3,0,0,0-1.38.57,45.52,45.52,0,0,0,16,2V149A43.83,43.83,0,0,1,15,142.14Z" transform="translate(-6.93 -11.69)"/><path class="cls-2" d="M44.09,139a5.05,5.05,0,0,1,1.62-2.66,13.11,13.11,0,0,1,4-2.32,55.52,55.52,0,0,1,7.41-2.26c2.6-.66,4.75-1.16,6.45-1.41a11.28,11.28,0,0,1,4.08,0,3.15,3.15,0,0,1,2.16,1.52,6.51,6.51,0,0,1,.63,3.1,15.41,15.41,0,0,1-.3,3,6.58,6.58,0,0,1-1.62,3,14.21,14.21,0,0,1-4,2.93,33.5,33.5,0,0,1-7.41,2.69,33.12,33.12,0,0,1-6.42,1.08,9.39,9.39,0,0,1-4.1-.54,4,4,0,0,1-2.16-2,7.35,7.35,0,0,1-.63-3.23A14.36,14.36,0,0,1,44.09,139Zm8.54,4.51a2.07,2.07,0,0,0,.75,1.22,2.34,2.34,0,0,0,1.44.37,11.28,11.28,0,0,0,2.28-.37,10.85,10.85,0,0,0,2.34-.86,4.07,4.07,0,0,0,1.41-1.19,4.54,4.54,0,0,0,.72-1.72,12.1,12.1,0,0,0,.21-2.42V137a9.23,9.23,0,0,0-.21-2.2,1.91,1.91,0,0,0-.75-1.17,2.28,2.28,0,0,0-1.44-.29,13.57,13.57,0,0,0-2.28.41,11.64,11.64,0,0,0-2.34.81,3.92,3.92,0,0,0-1.41,1.12,4.17,4.17,0,0,0-.72,1.67,11.76,11.76,0,0,0-.21,2.4v1.59A9.47,9.47,0,0,0,52.63,143.52Z" transform="translate(-6.93 -11.69)"/><path class="cls-2" d="M72.58,141.8a4.09,4.09,0,0,1,.57-2,9.36,9.36,0,0,1,1.74-2.16,27.24,27.24,0,0,1,2.94-2.4c1.17-.85,2.54-1.75,4.1-2.68,1.16-.7,2.32-1.39,3.48-2.06,1-.54,1.73-1,2.31-1.38a8.61,8.61,0,0,0,1.35-1,2.45,2.45,0,0,0,.63-1,3.31,3.31,0,0,0,.15-1c0-1.21-1.4-1.54-4.2-.83a12.57,12.57,0,0,0-2.55.91,5.33,5.33,0,0,0-1.44,1,2.63,2.63,0,0,0-.66,1.1,4.35,4.35,0,0,0-.15,1.14c-2.75.8-5.51,1.66-8.27,2.53v-.56c0-1.36,1.06-2.75,3.18-4.13a35,35,0,0,1,10-4c4.32-1.1,7.52-1.32,9.6-.93s3.12,1.29,3.12,2.56a2.73,2.73,0,0,1-.36,1.35,4.89,4.89,0,0,1-1.14,1.3A14.65,14.65,0,0,1,95,129c-.84.48-1.86,1-3.06,1.61q-2.4,1.23-4.8,2.58a22.54,22.54,0,0,0-3,1.94,6.22,6.22,0,0,0-1.38,1.35,93.66,93.66,0,0,1,16-3.19v2.31C90,136.39,81.29,139.06,72.58,141.8Z" transform="translate(-6.93 -11.69)"/><path class="cls-2" d="M101.67,125.6a4.56,4.56,0,0,1,1.62-2.54,8.62,8.62,0,0,1,4-1.64,18.59,18.59,0,0,1,7.4.45,24.49,24.49,0,0,1,6.45,2.47,16.41,16.41,0,0,1,4.08,3.17,10.36,10.36,0,0,1,2.16,3.44,10.7,10.7,0,0,1,.63,3.68,11.44,11.44,0,0,1-.3,2.74,2,2,0,0,1-1.62,1.53,9.89,9.89,0,0,1-4-.31c-1.78-.37-4.25-1.13-7.41-1.88-2.56-.6-4.7-1-6.41-1.37a15.85,15.85,0,0,1-4.11-1.37,4.89,4.89,0,0,1-2.16-2.16,7.55,7.55,0,0,1-.63-3.26A14.19,14.19,0,0,1,101.67,125.6Zm8.55,6.16a3.2,3.2,0,0,0,.75,1.48,3.7,3.7,0,0,0,1.43.93,18.89,18.89,0,0,0,2.28.66,12.51,12.51,0,0,0,2.34.39,2.09,2.09,0,0,0,1.41-.36,2.16,2.16,0,0,0,.72-1.26,10.16,10.16,0,0,0,.21-2.28v-1.59a11.14,11.14,0,0,0-.21-2.34,4.05,4.05,0,0,0-.75-1.64A4.17,4.17,0,0,0,117,124.6a10.19,10.19,0,0,0-2.28-.79,7.62,7.62,0,0,0-2.34-.25,2.22,2.22,0,0,0-1.4.57,2.81,2.81,0,0,0-.72,1.42,10.18,10.18,0,0,0-.21,2.33v1.59A9.86,9.86,0,0,0,110.22,131.76Z" transform="translate(-6.93 -11.69)"/><ellipse class="cls-2" cx="51.19" cy="126.43" rx="0.71" ry="1.29"/><ellipse class="cls-2" cx="105.02" cy="115.84" rx="0.71" ry="1.29"/><ellipse class="cls-2" cx="47.85" cy="126.43" rx="0.71" ry="1.29"/><ellipse class="cls-2" cx="108.46" cy="115.84" rx="0.71" ry="1.29"/><path class="cls-2" d="M53.88,140.16a2.69,2.69,0,0,0,.73,1.17,3.31,3.31,0,0,0,1.3.85,3.65,3.65,0,0,0,3.1-.53,2.66,2.66,0,0,0,.57-.54,1.21,1.21,0,0,0,.32-.75c0-.22-.42-.22-.4,0a.9.9,0,0,1-.25.56,2.4,2.4,0,0,1-.43.41,2.93,2.93,0,0,1-1.18.56,3.42,3.42,0,0,1-1.46,0,2.63,2.63,0,0,1-1.17-.7,2.35,2.35,0,0,1-.74-1.12c-.06-.22-.44-.13-.39.09Z" transform="translate(-6.93 -11.69)"/><path class="cls-2" d="M117.19,132.62a2.66,2.66,0,0,0-.73-1.16,3.33,3.33,0,0,0-1.3-.86,3.66,3.66,0,0,0-3.1.54,3.23,3.23,0,0,0-.57.54,1.14,1.14,0,0,0-.31.75c0,.22.41.22.39,0a.84.84,0,0,1,.26-.56,2.38,2.38,0,0,1,.42-.42,3.09,3.09,0,0,1,1.19-.55,3.23,3.23,0,0,1,1.45,0,2.63,2.63,0,0,1,1.17.7,2.26,2.26,0,0,1,.74,1.12c.06.22.44.12.39-.1Z" transform="translate(-6.93 -11.69)"/><path class="cls-2" d="M43.44,122.06c.16-.52.33-1,.49-1.52l0,0a1.84,1.84,0,0,1-1.57.68,3.17,3.17,0,0,1-1.68-.72A3.79,3.79,0,0,1,39.47,119a3,3,0,0,1-.24-1.49,4.32,4.32,0,0,1,.42-1.45,11.21,11.21,0,0,1,.86-1.47,12.33,12.33,0,0,1,1.05-1.33,6.3,6.3,0,0,1,1-.94,3.28,3.28,0,0,1,1.09-.48,2.57,2.57,0,0,1,1.23,0,2.7,2.7,0,0,1,.48.16,2.42,2.42,0,0,1,.5.31,1.84,1.84,0,0,1,.42.49,1.49,1.49,0,0,1,.24.69h0a38.27,38.27,0,0,1,1.88-3.7l1.25.09A66,66,0,0,0,45,122.8,12.51,12.51,0,0,1,43.44,122.06Zm-2.84-5.93a3.62,3.62,0,0,0-.24,1.1,2.39,2.39,0,0,0,.22,1.07,2.24,2.24,0,0,0,.83.94,1.86,1.86,0,0,0,1.23.37,2.13,2.13,0,0,0,1.12-.47,3.82,3.82,0,0,0,.91-1,7.55,7.55,0,0,0,.64-1.31,6.84,6.84,0,0,0,.37-1.37,3.08,3.08,0,0,0,0-1.17,1.69,1.69,0,0,0-.41-.86,1.65,1.65,0,0,0-.84-.5,1.84,1.84,0,0,0-1,0,2.51,2.51,0,0,0-.84.44,4.75,4.75,0,0,0-.79.77,7.4,7.4,0,0,0-.72,1A6,6,0,0,0,40.6,116.13Z" transform="translate(-6.93 -11.69)"/><path class="cls-2" d="M55.81,121.88a6.68,6.68,0,0,1-3.47,1.84,3.35,3.35,0,0,1-2.26-.27A3.08,3.08,0,0,1,48.76,122a4.91,4.91,0,0,1-.44-2.11,9.07,9.07,0,0,1,.31-2.39,7,7,0,0,1,1-2.08A6.3,6.3,0,0,1,51.05,114a6.79,6.79,0,0,1,1.76-.94,7,7,0,0,1,2-.39,4.66,4.66,0,0,1,2.12.29,2.68,2.68,0,0,1,1.18,1,3.14,3.14,0,0,1,.43,1.52,6.75,6.75,0,0,1-.16,1.78,32.21,32.21,0,0,1-8.12,1,4.77,4.77,0,0,0-.2,1.42,2.72,2.72,0,0,0,.31,1.25,1.93,1.93,0,0,0,.89.85,2.54,2.54,0,0,0,1.52.15,4.06,4.06,0,0,0,2.06-1,4.71,4.71,0,0,0,1.3-1.89c.61-.13,1.22-.28,1.83-.43A8.56,8.56,0,0,1,55.81,121.88Zm.87-6.72a1.55,1.55,0,0,0-.44-.74,2.13,2.13,0,0,0-.8-.44,3.22,3.22,0,0,0-1.11-.11,4.08,4.08,0,0,0-1.22.26,4.34,4.34,0,0,0-1.06.58,4.29,4.29,0,0,0-.83.87,4.35,4.35,0,0,0-.57,1.09,31.11,31.11,0,0,0,6.08-.5A2.26,2.26,0,0,0,56.68,115.16Z" transform="translate(-6.93 -11.69)"/><path class="cls-2" d="M61.28,118.58a1,1,0,0,0,.6.37,2.77,2.77,0,0,0,.91,0,7.07,7.07,0,0,0,1.07-.23c.29-.09.59-.19.9-.31a5.26,5.26,0,0,0,.86-.41,2.51,2.51,0,0,0,.66-.51,1.11,1.11,0,0,0,.3-.66.56.56,0,0,0-.44-.64,4,4,0,0,0-1.21-.17c-.5,0-1,0-1.63,0a9.62,9.62,0,0,1-1.63,0,2.23,2.23,0,0,1-1.17-.47,1.22,1.22,0,0,1-.28-1.21,2.2,2.2,0,0,1,.56-1.09,3.71,3.71,0,0,1,1-.77,5.85,5.85,0,0,1,1.27-.48,8.3,8.3,0,0,1,1.33-.24,11.16,11.16,0,0,1,1.49-.05,3.94,3.94,0,0,1,1.17.21,1.63,1.63,0,0,1,.77.55,1.73,1.73,0,0,1,.29,1l-1.59.19a.81.81,0,0,0-.19-.53,1.14,1.14,0,0,0-.49-.29,2.42,2.42,0,0,0-.69-.12,5.19,5.19,0,0,0-.78,0,6.54,6.54,0,0,0-.75.13,3.19,3.19,0,0,0-.72.23,2.31,2.31,0,0,0-.57.36.92.92,0,0,0-.28.51.45.45,0,0,0,.22.51,1.74,1.74,0,0,0,.74.24,8.27,8.27,0,0,0,1,.06h1.17a11.79,11.79,0,0,1,1.2,0,4.09,4.09,0,0,1,1,.21,1.66,1.66,0,0,1,.69.47,1.13,1.13,0,0,1,.24.82,2.12,2.12,0,0,1-.46,1.19,4.81,4.81,0,0,1-1.09,1,9.45,9.45,0,0,1-1.52.85c-.57.25-1.13.48-1.7.68a10.15,10.15,0,0,1-1.77.47,3.29,3.29,0,0,1-1.45,0,1.38,1.38,0,0,1-.9-.73,2.45,2.45,0,0,1-.18-1.48l1.82-.49A1.11,1.11,0,0,0,61.28,118.58Z" transform="translate(-6.93 -11.69)"/><path class="cls-2" d="M70.38,110.06l0-1.32a13.31,13.31,0,0,0,1.31-.4l0,1.4C71.3,109.86,70.85,110,70.38,110.06Zm1.39.93c0,2.31.07,4.58.11,6.82l-1.64.28q.06-3.53.12-6.84C70.84,111.17,71.31,111.09,71.77,111Z" transform="translate(-6.93 -11.69)"/><path class="cls-2" d="M81.39,118.69a4.72,4.72,0,0,1-3,.92,12.23,12.23,0,0,1-1.36,0,6.51,6.51,0,0,1-1.3-.16,2.73,2.73,0,0,1-1-.44,1.18,1.18,0,0,1-.48-.81l1.55-.17a.63.63,0,0,0,.31.44,2,2,0,0,0,.64.26,4.73,4.73,0,0,0,.79.1,6.85,6.85,0,0,0,.79,0,3.69,3.69,0,0,0,1.2-.26,1.77,1.77,0,0,0,.72-.55,1.59,1.59,0,0,0,.29-.83,4.15,4.15,0,0,0-.1-1.12l-.09-.5h0a1.81,1.81,0,0,1-.88,1.14,3.65,3.65,0,0,1-1.52.46,5.09,5.09,0,0,1-1.77-.09,3.81,3.81,0,0,1-1.34-.58,2.85,2.85,0,0,1-.84-1,3.51,3.51,0,0,1-.33-1.31,4.76,4.76,0,0,1,.13-1.32,4.91,4.91,0,0,1,.55-1.39,6.35,6.35,0,0,1,1-1.35A5.93,5.93,0,0,1,76.92,109a2,2,0,0,1,1.3-.26,1.6,1.6,0,0,1,1.07.79h0c-.07-.48-.14-1-.22-1.46l1.07-.61q.8,5.08,1.59,8.61C82,117.32,81.92,118.15,81.39,118.69ZM79,115.81a1.89,1.89,0,0,0,.64-.79,3.29,3.29,0,0,0,.23-1.09,6.31,6.31,0,0,0-.08-1.22,6.4,6.4,0,0,0-.31-1.14,3.48,3.48,0,0,0-.53-.93,1.47,1.47,0,0,0-.76-.49,1.56,1.56,0,0,0-1,.13,3.11,3.11,0,0,0-1,.66,3.53,3.53,0,0,0-.65.87,3.58,3.58,0,0,0-.34,1,4,4,0,0,0,0,1,3.83,3.83,0,0,0,.2,1,2.19,2.19,0,0,0,.49.8,2.14,2.14,0,0,0,.83.52,2.57,2.57,0,0,0,1.2.09A2.44,2.44,0,0,0,79,115.81Z" transform="translate(-6.93 -11.69)"/><path class="cls-2" d="M82.92,106.15c.12.66.24,1.3.37,1.92h0c.22-1.55.8-2.6,1.89-2.57a2.27,2.27,0,0,1,1.32.5,5.42,5.42,0,0,1,1.08,1.15,8.44,8.44,0,0,1,.85,1.5,13.9,13.9,0,0,1,.63,1.68c.72,2.35,1.44,4.4,2.16,6.13l-1.56-.12q-1-2.74-2.07-6.52a4.56,4.56,0,0,0-.88-1.76,1.74,1.74,0,0,0-1.3-.74,1.26,1.26,0,0,0-.91.34,2,2,0,0,0-.51.89,4.17,4.17,0,0,0-.16,1.21,6.77,6.77,0,0,0,.15,1.38q.66,3,1.32,5.24l-1.38.11q-1-3.9-2.09-9.91C82.21,106.41,82.56,106.27,82.92,106.15Z" transform="translate(-6.93 -11.69)"/><path class="cls-2" d="M94.31,115.19a3.56,3.56,0,0,0,.92.57,6.24,6.24,0,0,0,1.13.38,12.34,12.34,0,0,0,1.24.22c.33,0,.67.07,1,.08a6.09,6.09,0,0,0,1,0,1.16,1.16,0,0,0,.62-.2c.13-.1.13-.26,0-.46a2.45,2.45,0,0,0-1.12-.75c-.54-.21-1.16-.42-1.83-.63s-1.37-.44-2.08-.68a13.68,13.68,0,0,1-1.93-.84,6.74,6.74,0,0,1-1.56-1.14,4.16,4.16,0,0,1-1-1.67,2.25,2.25,0,0,1-.15-1.24.68.68,0,0,1,.51-.54,1.8,1.8,0,0,1,1,.11,10,10,0,0,1,1.36.59l1.88,1c.63.32,1.25.65,1.84,1a18.22,18.22,0,0,1,1.66,1,6.13,6.13,0,0,1,1.27,1.14c-.81-.13-1.57-.28-2.31-.44a3.19,3.19,0,0,0-.69-.68,8.12,8.12,0,0,0-.92-.6c-.33-.19-.66-.37-1-.54s-.66-.31-1-.44a8.14,8.14,0,0,0-.81-.3,2.45,2.45,0,0,0-.66-.14.42.42,0,0,0-.37.15c-.07.1-.06.28,0,.53a2.07,2.07,0,0,0,.59.78,5.77,5.77,0,0,0,1,.7,11.69,11.69,0,0,0,1.32.62c.49.19,1,.38,1.53.56l1.73.56c.59.19,1.17.38,1.71.59a10,10,0,0,1,1.47.69,3.12,3.12,0,0,1,1,.86c.29.4.33.71.13.91a1.94,1.94,0,0,1-1.06.43,10.19,10.19,0,0,1-1.75.1c-.66,0-1.32,0-2-.1a15.51,15.51,0,0,1-2-.32,7.9,7.9,0,0,1-1.74-.58,4.84,4.84,0,0,1-1.38-1,4.21,4.21,0,0,1-1-1.39l1.7.34A2.53,2.53,0,0,0,94.31,115.19Z" transform="translate(-6.93 -11.69)"/></svg>
